<svg xmlns="http://www.w3.org/2000/svg" viewBox="0 0 541.9 306.94"><defs><style>.cls-1{fill:#eecde2;stroke-dasharray:5;}.cls-1,.cls-4{stroke:#999;}.cls-1,.cls-2,.cls-7{stroke-miterlimit:10;}.cls-1,.cls-7{stroke-width:2px;}.cls-2{fill:#ee1e3a;stroke:#666766;}.cls-3{fill:#fff;}.cls-4{fill:#d7d6cb;stroke-linejoin:round;}.cls-5{fill:#333;}.cls-6{fill:#231f20;}.cls-7{fill:none;stroke:#1c3664;}</style></defs><g id="Layer_2" data-name="Layer 2"><g id="Layer_1-2" data-name="Layer 1"><rect class="cls-1" x="1" y="30.25" width="451.57" height="275.68"/><rect class="cls-2" x="30.35" y="51.15" width="119.35" height="57.91"/><path class="cls-3" d="M51.46,73.73h6.65v2H53.64v2h4.13v2H53.64v3.86H51.46Z"/><path class="cls-3" d="M59.67,73.73h3.84c2,0,3.74.7,3.74,3a2.55,2.55,0,0,1-2.14,2.71l2.52,4.19H65l-2.07-4H61.86v4H59.67Zm2.19,4.11h1.29c.8,0,1.83,0,1.83-1.11s-.89-1.15-1.69-1.15H61.86Z"/><path class="cls-3" d="M73.57,73.48a5.21,5.21,0,1,1-5.36,5.21A5,5,0,0,1,73.57,73.48Zm0,8.41a3.2,3.2,0,1,0-3.09-3.2A3,3,0,0,0,73.57,81.89Z"/><path class="cls-3" d="M80.39,73.73h3l4.22,6.9h0v-6.9h2.18v9.92H86.94l-4.33-7.06h0v7.06H80.39Z"/><path class="cls-3" d="M93.72,75.67H90.89V73.73h7.85v1.94H95.91v8H93.72Z"/><path class="cls-3" d="M99.92,73.73h6.74v2h-4.55V77.6h4.3v2h-4.3v2h4.8v2h-7Z"/><path class="cls-3" d="M108.66,73.73h3l4.22,6.9h0v-6.9h2.19v9.92H115.2l-4.33-7.06h0v7.06h-2.19Z"/><path class="cls-3" d="M120.07,73.73h3.28c3.19,0,5.87,1.36,5.87,5,0,3.21-2.62,4.93-5.58,4.93h-3.57Zm2.19,7.9h1.13c2,0,3.56-.77,3.56-3,0-2-1.56-2.86-3.41-2.86h-1.28Z"/><rect class="cls-2" x="164.71" y="51.15" width="119.35" height="57.91"/><path class="cls-3" d="M185.82,73.73h6.65v2H188v2h4.14v2H188v3.86h-2.18Z"/><path class="cls-3" d="M194,73.73h3.83c2,0,3.74.7,3.74,3a2.55,2.55,0,0,1-2.14,2.71L202,83.65h-2.62l-2.07-4h-1.08v4H194Zm2.18,4.11h1.29c.8,0,1.83,0,1.83-1.11s-.89-1.15-1.69-1.15h-1.43Z"/><path class="cls-3" d="M207.93,73.48a5.21,5.21,0,1,1-5.35,5.21A5,5,0,0,1,207.93,73.48Zm0,8.41a3.2,3.2,0,1,0-3.09-3.2A3,3,0,0,0,207.93,81.89Z"/><path class="cls-3" d="M214.76,73.73h3l4.21,6.9h0v-6.9h2.18v9.92H221.3L217,76.59h0v7.06h-2.18Z"/><path class="cls-3" d="M228.08,75.67h-2.83V73.73h7.85v1.94h-2.83v8h-2.19Z"/><path class="cls-3" d="M234.29,73.73H241v2h-4.55V77.6h4.3v2h-4.3v2h4.81v2h-7Z"/><path class="cls-3" d="M243,73.73h3l4.22,6.9h0v-6.9h2.18v9.92h-2.86l-4.32-7.06h0v7.06H243Z"/><path class="cls-3" d="M254.43,73.73h3.28c3.19,0,5.87,1.36,5.87,5,0,3.21-2.62,4.93-5.58,4.93h-3.57Zm2.19,7.9h1.13c2,0,3.56-.77,3.56-3,0-2-1.56-2.86-3.4-2.86h-1.29Z"/><rect class="cls-2" x="299.79" y="51.15" width="119.35" height="57.91"/><path class="cls-3" d="M320.89,73.73h6.65v2h-4.46v2h4.13v2h-4.13v3.86h-2.19Z"/><path class="cls-3" d="M329.11,73.73H333c2,0,3.74.7,3.74,3a2.55,2.55,0,0,1-2.15,2.71l2.53,4.19h-2.62l-2.08-4h-1.08v4h-2.18Zm2.18,4.11h1.29c.8,0,1.84,0,1.84-1.11s-.9-1.15-1.7-1.15h-1.43Z"/><path class="cls-3" d="M343,73.48a5.21,5.21,0,1,1-5.35,5.21A5,5,0,0,1,343,73.48Zm0,8.41a3.2,3.2,0,1,0-3.08-3.2A3,3,0,0,0,343,81.89Z"/><path class="cls-3" d="M349.83,73.73h3l4.21,6.9h0v-6.9h2.19v9.92h-2.86L352,76.59h0v7.06h-2.18Z"/><path class="cls-3" d="M363.16,75.67h-2.83V73.73h7.84v1.94h-2.83v8h-2.18Z"/><path class="cls-3" d="M369.36,73.73h6.74v2h-4.56V77.6h4.3v2h-4.3v2h4.81v2h-7Z"/><path class="cls-3" d="M378.1,73.73h3l4.21,6.9h0v-6.9h2.18v9.92h-2.85l-4.33-7.06h0v7.06H378.1Z"/><path class="cls-3" d="M389.51,73.73h3.27c3.2,0,5.87,1.36,5.87,5,0,3.21-2.62,4.93-5.57,4.93h-3.57Zm2.18,7.9h1.13c2,0,3.56-.77,3.56-3,0-2-1.55-2.86-3.4-2.86h-1.29Z"/><rect class="cls-4" x="209.32" y="-23.72" width="29.72" height="388.83" transform="translate(394.87 -53.48) rotate(90)"/><path class="cls-5" d="M223.57,165.75h1.81l4.31,9.92h-2.46l-.86-2.11h-3.85l-.83,2.11h-2.41Zm.84,2.88-1.21,3.08h2.43Z"/><path class="cls-5" d="M230.68,165.75h3.68c2.06,0,3.77.66,3.77,3s-1.58,3-3.67,3h-1.6v3.87h-2.18Zm2.18,4.2h1.46c.77,0,1.54-.27,1.54-1.19s-1-1.16-1.87-1.16h-1.13Z"/><path class="cls-5" d="M239.47,165.75h2.19v9.92h-2.19Z"/><rect class="cls-4" x="209.59" y="-71.09" width="29.72" height="389.37" transform="translate(348.05 -100.85) rotate(90)"/><path class="cls-5" d="M175.33,118.65h3.84c2,0,3.74.7,3.74,3a2.55,2.55,0,0,1-2.14,2.71l2.52,4.19h-2.62l-2.08-4h-1.07v4h-2.19Zm2.19,4.11h1.28c.8,0,1.84,0,1.84-1.11s-.9-1.15-1.7-1.15h-1.42Z"/><path class="cls-5" d="M189.22,118.4a5.21,5.21,0,1,1-5.35,5.21A5,5,0,0,1,189.22,118.4Zm0,8.41a3.2,3.2,0,1,0-3.08-3.2A3,3,0,0,0,189.22,126.81Z"/><path class="cls-5" d="M204.41,124.75a4.18,4.18,0,0,1-8.36,0v-6.1h2.19v6a2,2,0,1,0,4,0v-6h2.18Z"/><path class="cls-5" d="M208.34,120.59h-2.83v-1.94h7.85v1.94h-2.83v8h-2.19Z"/><path class="cls-5" d="M214.43,118.65h2.19v9.92h-2.19Z"/><path class="cls-5" d="M218.6,118.65h3l4.22,6.9h0v-6.9H228v9.92h-2.85l-4.33-7.06h0v7.06H218.6Z"/><path class="cls-5" d="M239,127.87a8.91,8.91,0,0,1-4.16.95,5.21,5.21,0,1,1,0-10.42,5.59,5.59,0,0,1,3.95,1.28l-1.54,1.68a3,3,0,0,0-2.41-.94,3.2,3.2,0,0,0,0,6.39,4.32,4.32,0,0,0,2.06-.49v-1.61h-1.78v-2H239Z"/><path class="cls-5" d="M245.13,118.65h2.19v7.9h4.05v2h-6.24Z"/><path class="cls-5" d="M255.83,118.65h1.81l4.31,9.92h-2.46l-.86-2.1h-3.85l-.83,2.1h-2.41Zm.84,2.89-1.2,3.08h2.42Z"/><path class="cls-5" d="M264.09,124.34l-3.73-5.69h2.72l2.1,3.72,2.23-3.72H270l-3.72,5.69v4.23h-2.19Z"/><path class="cls-5" d="M270.81,118.65h6.74v2H273v1.85h4.3v2H273v2h4.81v2h-7Z"/><path class="cls-5" d="M279.55,118.65h3.83c2,0,3.74.7,3.74,3a2.55,2.55,0,0,1-2.14,2.71l2.52,4.19h-2.62l-2.07-4h-1.08v4h-2.18Zm2.18,4.11H283c.8,0,1.83,0,1.83-1.11s-.89-1.15-1.69-1.15h-1.43Z"/><rect class="cls-4" x="209.32" y="27.94" width="29.72" height="388.83" transform="translate(1.82 446.53) rotate(-90)"/><path class="cls-5" d="M197.84,217.1h3.28c3.19,0,5.87,1.25,5.87,4.56,0,2.93-2.62,4.51-5.58,4.51h-3.57Zm2.19,7.22h1.13c2,0,3.56-.7,3.56-2.76,0-1.78-1.56-2.61-3.4-2.61H200Z"/><path class="cls-5" d="M211.73,217.1h1.81l4.31,9.07h-2.46l-.86-1.92h-3.85l-.83,1.92h-2.4Zm.84,2.64-1.2,2.82h2.42Z"/><path class="cls-5" d="M219.47,218.87h-2.83V217.1h7.85v1.77h-2.83v7.3h-2.19Z"/><path class="cls-5" d="M227.57,217.1h1.8l4.32,9.07h-2.47l-.85-1.92h-3.86l-.82,1.92h-2.41Zm.84,2.64-1.21,2.82h2.42Z"/><path class="cls-5" d="M234.68,217.1h3.69c1.74,0,3.63.34,3.63,2.31a2.09,2.09,0,0,1-1.71,2v0a2.25,2.25,0,0,1,2.17,2.22c0,1.89-2,2.52-3.72,2.52h-4.06Zm2.18,3.63h1.58c.68,0,1.38-.26,1.38-1s-.79-1-1.47-1h-1.49Zm0,3.75h2c.69,0,1.46-.27,1.46-1.06s-1.05-1-1.77-1h-1.65Z"/><path class="cls-5" d="M247,217.1h1.81l4.31,9.07h-2.46l-.86-1.92H246l-.83,1.92h-2.4Zm.84,2.64-1.2,2.82h2.42Z"/><path class="cls-5" d="M259,219.32a2.21,2.21,0,0,0-1.58-.6c-.62,0-1.47.25-1.47.93,0,1.65,4.57.59,4.57,3.77,0,2-1.78,3-3.83,3a5,5,0,0,1-3.33-1.14l1.55-1.56a2.55,2.55,0,0,0,1.91.85c.71,0,1.51-.3,1.51-.94,0-1.67-4.65-.77-4.65-3.79,0-1.94,1.84-2.95,3.78-2.95a4.75,4.75,0,0,1,3,.95Z"/><path class="cls-5" d="M262.24,217.1H269V219h-4.55v1.69h4.3v1.84h-4.3v1.84h4.8v1.85h-7Z"/><rect class="cls-4" x="209.86" y="80.4" width="29.72" height="388.83" transform="translate(-50.1 499.54) rotate(-90)"/><path class="cls-5" d="M230.61,269.57h1.81l4.31,9.06h-2.46l-.86-1.92h-3.85l-.83,1.92h-2.41Zm.84,2.64-1.2,2.81h2.42Z"/><path class="cls-5" d="M237.69,269.57h2.19v9.06h-2.19Z"/><path class="cls-6" d="M55.65,10.09h-2V9.16h0a2.22,2.22,0,0,1-2,1.09c-2.13,0-2.52-1.4-2.52-3.22V3.28h2.1V6.61c0,.79,0,1.8,1.09,1.8s1.26-.86,1.26-1.74V3.28h2.1Z"/><path class="cls-6" d="M61,5.28a1.5,1.5,0,0,0-1.22-.57c-.35,0-.77.15-.77.56,0,1,3.54.15,3.54,2.74,0,1.74-1.68,2.24-3.14,2.24a3.71,3.71,0,0,1-2.67-.92L58,7.92a1.85,1.85,0,0,0,1.49.74c.47,0,.95-.13.95-.49,0-1.1-3.55-.17-3.55-2.76,0-1.6,1.43-2.3,2.86-2.3a3.4,3.4,0,0,1,2.52.9Z"/><path class="cls-6" d="M70.06,8.91a3.71,3.71,0,0,1-2.87,1.34,3.58,3.58,0,1,1,0-7.14c2,0,3.19,1.4,3.19,3.57v.66H65.51a1.56,1.56,0,0,0,1.58,1.32,1.78,1.78,0,0,0,1.5-.83Zm-1.78-3A1.26,1.26,0,0,0,67,4.62a1.4,1.4,0,0,0-1.48,1.29Z"/><path class="cls-6" d="M71.65,3.28h2.1V4.37h0a2.08,2.08,0,0,1,2-1.26,2.56,2.56,0,0,1,.7.07V5.1A3.37,3.37,0,0,0,75.55,5c-1.6,0-1.8.92-1.8,2.28v2.85h-2.1Z"/><path class="cls-6" d="M85.35,5.28a1.5,1.5,0,0,0-1.22-.57c-.35,0-.77.15-.77.56,0,1,3.54.15,3.54,2.74,0,1.74-1.68,2.24-3.14,2.24a3.71,3.71,0,0,1-2.67-.92l1.27-1.41a1.85,1.85,0,0,0,1.49.74c.47,0,1-.13,1-.49,0-1.1-3.55-.17-3.55-2.76,0-1.6,1.43-2.3,2.86-2.3a3.4,3.4,0,0,1,2.52.9Z"/><path class="cls-6" d="M92.61,5H90.76V7.23c0,.73.09,1.26,1,1.26a1.49,1.49,0,0,0,.85-.2V10a4.29,4.29,0,0,1-1.47.21c-1.4,0-2.48-.57-2.48-2.05V5H87.32V3.28h1.34v-2h2.1v2h1.85Z"/><path class="cls-6" d="M97.2,3.11a3.58,3.58,0,1,1-3.78,3.57A3.56,3.56,0,0,1,97.2,3.11Zm0,5.3a1.59,1.59,0,0,0,1.68-1.73,1.68,1.68,0,1,0-3.36,0A1.59,1.59,0,0,0,97.2,8.41Z"/><path class="cls-6" d="M102.21,3.28h2.11V4.37h0a2.08,2.08,0,0,1,2-1.26,2.56,2.56,0,0,1,.7.07V5.1a3.31,3.31,0,0,0-.89-.14c-1.6,0-1.79.92-1.79,2.28v2.85h-2.11Z"/><path class="cls-6" d="M111.83,11.19c-.56,1.45-.88,2.26-2.88,2.26a5.21,5.21,0,0,1-1.57-.25l.28-1.73a2.37,2.37,0,0,0,1,.21c1,0,1.11-.4,1.4-1.15l.16-.39-3-6.86h2.27l1.75,4.49h0l1.5-4.49h2.16Z"/><path class="cls-6" d="M123.13,2.52l-2,1.75L120,2.9,123.19.17h2v9.92h-2Z"/><path class="cls-6" d="M185,10.09h-2V9.16h0a2.22,2.22,0,0,1-2,1.09c-2.13,0-2.52-1.4-2.52-3.22V3.28h2.1V6.61c0,.79,0,1.8,1.09,1.8s1.26-.86,1.26-1.74V3.28H185Z"/><path class="cls-6" d="M190.33,5.28a1.5,1.5,0,0,0-1.22-.57c-.35,0-.77.15-.77.56,0,1,3.54.15,3.54,2.74,0,1.74-1.68,2.24-3.14,2.24a3.71,3.71,0,0,1-2.67-.92l1.27-1.41a1.86,1.86,0,0,0,1.49.74c.47,0,.95-.13.95-.49,0-1.1-3.54-.17-3.54-2.76,0-1.6,1.42-2.3,2.85-2.3a3.39,3.39,0,0,1,2.52.9Z"/><path class="cls-6" d="M199.4,8.91a3.71,3.71,0,0,1-2.87,1.34,3.58,3.58,0,1,1,0-7.14c2,0,3.19,1.4,3.19,3.57v.66h-4.87a1.57,1.57,0,0,0,1.58,1.32,1.78,1.78,0,0,0,1.5-.83Zm-1.78-3a1.26,1.26,0,0,0-1.29-1.29,1.4,1.4,0,0,0-1.48,1.29Z"/><path class="cls-6" d="M201,3.28h2.1V4.37h0a2.08,2.08,0,0,1,2-1.26,2.56,2.56,0,0,1,.7.07V5.1a3.31,3.31,0,0,0-.89-.14c-1.6,0-1.8.92-1.8,2.28v2.85H201Z"/><path class="cls-6" d="M214.69,5.28a1.5,1.5,0,0,0-1.22-.57c-.35,0-.77.15-.77.56,0,1,3.54.15,3.54,2.74,0,1.74-1.68,2.24-3.14,2.24a3.71,3.71,0,0,1-2.67-.92l1.27-1.41a1.86,1.86,0,0,0,1.49.74c.47,0,.95-.13.95-.49,0-1.1-3.54-.17-3.54-2.76,0-1.6,1.43-2.3,2.85-2.3A3.42,3.42,0,0,1,216,4Z"/><path class="cls-6" d="M222,5h-1.84V7.23c0,.73.08,1.26,1,1.26a1.49,1.49,0,0,0,.85-.2V10a4.29,4.29,0,0,1-1.47.21c-1.4,0-2.48-.57-2.48-2.05V5h-1.34V3.28H218v-2h2.11v2H222Z"/><path class="cls-6" d="M226.55,3.11a3.58,3.58,0,1,1-3.79,3.57A3.55,3.55,0,0,1,226.55,3.11Zm0,5.3a1.59,1.59,0,0,0,1.68-1.73,1.69,1.69,0,1,0-3.37,0A1.6,1.6,0,0,0,226.55,8.41Z"/><path class="cls-6" d="M231.56,3.28h2.1V4.37h0a2.08,2.08,0,0,1,2-1.26,2.64,2.64,0,0,1,.7.07V5.1a3.45,3.45,0,0,0-.9-.14c-1.6,0-1.79.92-1.79,2.28v2.85h-2.1Z"/><path class="cls-6" d="M241.18,11.19c-.56,1.45-.89,2.26-2.89,2.26a5.26,5.26,0,0,1-1.57-.25l.28-1.73a2.37,2.37,0,0,0,1,.21c1,0,1.11-.4,1.4-1.15l.16-.39-3-6.86h2.27l1.75,4.49h0l1.5-4.49h2.16Z"/><path class="cls-6" d="M249.13,7.86,253,4.4A2.06,2.06,0,0,0,253.86,3a1.12,1.12,0,0,0-1.22-1.08,1.27,1.27,0,0,0-1.29,1.26L249.25,3c.13-2,1.56-3,3.5-3A2.89,2.89,0,0,1,256,3a3.28,3.28,0,0,1-1.3,2.67l-3,2.59h4.4v1.85h-6.92Z"/><path class="cls-6" d="M327.24,10.09h-2V9.16h0a2.22,2.22,0,0,1-2,1.09c-2.13,0-2.52-1.4-2.52-3.22V3.28h2.1V6.61c0,.79,0,1.8,1.09,1.8s1.26-.86,1.26-1.74V3.28h2.1Z"/><path class="cls-6" d="M332.58,5.28a1.5,1.5,0,0,0-1.22-.57c-.35,0-.77.15-.77.56,0,1,3.54.15,3.54,2.74,0,1.74-1.68,2.24-3.14,2.24a3.71,3.71,0,0,1-2.67-.92l1.27-1.41a1.85,1.85,0,0,0,1.49.74c.47,0,.95-.13.95-.49,0-1.1-3.54-.17-3.54-2.76,0-1.6,1.42-2.3,2.85-2.3a3.4,3.4,0,0,1,2.52.9Z"/><path class="cls-6" d="M341.65,8.91a3.71,3.71,0,0,1-2.87,1.34,3.58,3.58,0,1,1,0-7.14c2,0,3.19,1.4,3.19,3.57v.66H337.1a1.57,1.57,0,0,0,1.58,1.32,1.78,1.78,0,0,0,1.5-.83Zm-1.78-3a1.26,1.26,0,0,0-1.29-1.29,1.4,1.4,0,0,0-1.48,1.29Z"/><path class="cls-6" d="M343.24,3.28h2.1V4.37h0a2.08,2.08,0,0,1,2-1.26,2.56,2.56,0,0,1,.7.07V5.1a3.37,3.37,0,0,0-.89-.14c-1.6,0-1.8.92-1.8,2.28v2.85h-2.1Z"/><path class="cls-6" d="M356.94,5.28a1.5,1.5,0,0,0-1.22-.57c-.35,0-.77.15-.77.56,0,1,3.54.15,3.54,2.74,0,1.74-1.68,2.24-3.14,2.24a3.71,3.71,0,0,1-2.67-.92L354,7.92a1.85,1.85,0,0,0,1.49.74c.47,0,.95-.13.95-.49,0-1.1-3.54-.17-3.54-2.76,0-1.6,1.42-2.3,2.85-2.3a3.4,3.4,0,0,1,2.52.9Z"/><path class="cls-6" d="M364.2,5h-1.85V7.23c0,.73.09,1.26,1,1.26a1.49,1.49,0,0,0,.85-.2V10a4.29,4.29,0,0,1-1.47.21c-1.4,0-2.48-.57-2.48-2.05V5h-1.34V3.28h1.34v-2h2.1v2h1.85Z"/><path class="cls-6" d="M368.79,3.11A3.58,3.58,0,1,1,365,6.68,3.55,3.55,0,0,1,368.79,3.11Zm0,5.3a1.6,1.6,0,0,0,1.69-1.73,1.69,1.69,0,1,0-3.37,0A1.59,1.59,0,0,0,368.79,8.41Z"/><path class="cls-6" d="M373.8,3.28h2.11V4.37h0a2.08,2.08,0,0,1,2-1.26,2.64,2.64,0,0,1,.7.07V5.1a3.45,3.45,0,0,0-.9-.14c-1.6,0-1.79.92-1.79,2.28v2.85H373.8Z"/><path class="cls-6" d="M383.42,11.19c-.56,1.45-.88,2.26-2.88,2.26A5.26,5.26,0,0,1,379,13.2l.28-1.73a2.37,2.37,0,0,0,1,.21c.95,0,1.11-.4,1.4-1.15l.16-.39-3-6.86h2.27l1.75,4.49h0l1.5-4.49h2.16Z"/><path class="cls-6" d="M393.71,4.08h.69c.77,0,1.6-.17,1.6-1.11a1.13,1.13,0,0,0-1.24-1,1.22,1.22,0,0,0-1.23.93l-2.31-.48C391.66.66,393.07,0,394.75,0s3.35.85,3.35,2.76a2.07,2.07,0,0,1-1.7,2.17V5a2.2,2.2,0,0,1,1.87,2.31c0,2-1.63,3-3.58,3a3.27,3.27,0,0,1-3.55-2.56l2.21-.52a1.33,1.33,0,0,0,1.47,1.15,1.19,1.19,0,0,0,1.34-1.27c0-1.12-1-1.15-2-1.15h-.49Z"/><rect class="cls-7" x="25.04" y="47.58" width="398.3" height="95.49"/><rect class="cls-7" x="25.04" y="151.46" width="398.3" height="39.6"/><rect class="cls-7" x="25.04" y="203.05" width="398.3" height="39.6"/><rect class="cls-7" x="25.04" y="255.02" width="398.3" height="39.6"/><rect class="cls-7" x="482.28" y="35.62" width="48.64" height="39.6"/><path class="cls-6" d="M478.46,84.16a2.38,2.38,0,0,0-1.88-.81,3.22,3.22,0,0,0-.07,6.39,2.34,2.34,0,0,0,2-1.07L480.38,90a4.34,4.34,0,0,1-3.59,1.73,5.22,5.22,0,1,1,0-10.43,4.25,4.25,0,0,1,3.35,1.46Z"/><path class="cls-6" d="M484.82,84.53A3.58,3.58,0,1,1,481,88.1,3.55,3.55,0,0,1,484.82,84.53Zm0,5.29a1.72,1.72,0,1,0-1.68-1.72A1.59,1.59,0,0,0,484.82,89.82Z"/><path class="cls-6" d="M489.83,84.7h2v.92h0a2.22,2.22,0,0,1,2-1.09c2.13,0,2.52,1.4,2.52,3.22V91.5h-2.1V88.17c0-.78,0-1.79-1.09-1.79s-1.26.85-1.26,1.73V91.5h-2.11Z"/><path class="cls-6" d="M502.51,86.38h-1.85v2.27c0,.73.08,1.26,1,1.26a1.5,1.5,0,0,0,.86-.2v1.75a4.29,4.29,0,0,1-1.47.21c-1.4,0-2.48-.57-2.48-2.06V86.38h-1.35V84.7h1.35v-2h2.1v2h1.85Z"/><path class="cls-6" d="M507.84,90.65h0a2.44,2.44,0,0,1-2.15,1,2.19,2.19,0,0,1-2.43-2.1c0-2.35,2.86-2.39,4.61-2.39A1.24,1.24,0,0,0,506.5,86a2.22,2.22,0,0,0-1.71.81l-1.12-1.15a4.38,4.38,0,0,1,3-1.09c2.46,0,3.11,1.24,3.11,3.51V91.5h-1.93Zm-.52-2.13c-.64,0-2.07.06-2.07,1,0,.5.53.74,1,.74.83,0,1.6-.43,1.6-1.27v-.45Z"/><path class="cls-6" d="M512.17,81.33A1.22,1.22,0,1,1,511,82.55,1.22,1.22,0,0,1,512.17,81.33Zm-1.06,3.37h2.11v6.8h-2.11Z"/><path class="cls-6" d="M514.73,84.7h2v.92h0a2.22,2.22,0,0,1,2-1.09c2.13,0,2.52,1.4,2.52,3.22V91.5h-2.1V88.17c0-.78,0-1.79-1.09-1.79s-1.26.85-1.26,1.73V91.5h-2.1Z"/><path class="cls-6" d="M529.21,90.33a3.73,3.73,0,0,1-2.88,1.34,3.58,3.58,0,1,1,0-7.14c2,0,3.2,1.4,3.2,3.57v.66h-4.88a1.57,1.57,0,0,0,1.59,1.32,1.82,1.82,0,0,0,1.5-.83Zm-1.78-3A1.26,1.26,0,0,0,526.14,86a1.41,1.41,0,0,0-1.49,1.29Z"/><path class="cls-6" d="M530.8,84.7h2.1v1.09h0a2.07,2.07,0,0,1,2-1.26,2.6,2.6,0,0,1,.7.07v1.92a3,3,0,0,0-.9-.14c-1.59,0-1.79.92-1.79,2.28V91.5h-2.1Z"/><path class="cls-6" d="M540.35,86.7a1.51,1.51,0,0,0-1.22-.58c-.35,0-.77.16-.77.57,0,1,3.54.15,3.54,2.74,0,1.74-1.68,2.24-3.13,2.24a3.77,3.77,0,0,1-2.68-.92l1.28-1.42a1.81,1.81,0,0,0,1.48.75c.48,0,.95-.13.95-.5,0-1.09-3.54-.16-3.54-2.75,0-1.6,1.43-2.3,2.86-2.3a3.45,3.45,0,0,1,2.52.89Z"/></g></g></svg>