<svg xmlns="http://www.w3.org/2000/svg" viewBox="0 0 541.9 361.05"><defs><style>.cls-1{fill:#231f20;}.cls-2{fill:#eecde2;stroke-dasharray:5;}.cls-2,.cls-5{stroke:#999;}.cls-2,.cls-3,.cls-7{stroke-miterlimit:10;}.cls-2,.cls-7{stroke-width:2px;}.cls-3{fill:#ee1e3a;stroke:#666766;}.cls-4{fill:#fff;}.cls-5{fill:#d7d6cb;stroke-linejoin:round;}.cls-6{fill:#333;}.cls-7{fill:none;stroke:#1c3664;}</style></defs><g id="Layer_2" data-name="Layer 2"><g id="Layer_1-2" data-name="Layer 1"><path class="cls-1" d="M61.28,1.06h5.19l3.59,10.16h0L73.71,1.06h5.17V16.63H75.45V4.69h0L71.32,16.63H68.7L64.76,4.69h-.05V16.63H61.28Z"/><path class="cls-1" d="M83.32.66a1.92,1.92,0,1,1-1.91,1.92A1.92,1.92,0,0,1,83.32.66ZM81.67,5.94H85V16.63H81.67Z"/><path class="cls-1" d="M94.59,9.4A2,2,0,0,0,93,8.58a2.5,2.5,0,0,0-2.64,2.71A2.5,2.5,0,0,0,93,14a2.09,2.09,0,0,0,1.63-.81l2.18,2.29A5.4,5.4,0,0,1,93,16.9c-3.3,0-5.94-2.2-5.94-5.61S89.66,5.68,93,5.68a5.36,5.36,0,0,1,3.81,1.43Z"/><path class="cls-1" d="M98,5.94h3.3V7.66h0a3.26,3.26,0,0,1,3.08-2,4.28,4.28,0,0,1,1.1.11v3a5.13,5.13,0,0,0-1.41-.22c-2.51,0-2.82,1.45-2.82,3.59v4.46H98Z"/><path class="cls-1" d="M112.06,5.68c3.3,0,5.94,2.2,5.94,5.61s-2.64,5.61-5.94,5.61-5.94-2.2-5.94-5.61S108.76,5.68,112.06,5.68Zm0,8.31a2.5,2.5,0,0,0,2.64-2.7,2.64,2.64,0,1,0-5.28,0A2.5,2.5,0,0,0,112.06,14Z"/><path class="cls-1" d="M126,9.09a2.33,2.33,0,0,0-1.91-.9c-.55,0-1.21.24-1.21.88,0,1.58,5.57.24,5.57,4.31,0,2.73-2.65,3.52-4.93,3.52a5.94,5.94,0,0,1-4.21-1.45l2-2.23a2.85,2.85,0,0,0,2.33,1.17c.75,0,1.5-.2,1.5-.77,0-1.72-5.57-.26-5.57-4.33,0-2.51,2.24-3.61,4.49-3.61a5.42,5.42,0,0,1,4,1.4Z"/><path class="cls-1" d="M140.24,14.79a5.81,5.81,0,0,1-4.51,2.11c-3.3,0-5.94-2.2-5.94-5.61s2.64-5.61,5.94-5.61c3.08,0,5,2.2,5,5.61v1h-7.66a2.46,2.46,0,0,0,2.48,2.07,2.82,2.82,0,0,0,2.36-1.3Zm-2.79-4.71a2,2,0,0,0-2-2,2.2,2.2,0,0,0-2.33,2Z"/><path class="cls-1" d="M142.75,5.94h3.3V7.66h0a3.26,3.26,0,0,1,3.08-2,4.28,4.28,0,0,1,1.1.11v3a5.13,5.13,0,0,0-1.41-.22c-2.51,0-2.81,1.45-2.81,3.59v4.46h-3.3Z"/><path class="cls-1" d="M150.58,5.94h3.56l2.71,7.26h0l2.51-7.26h3.32L158.5,16.63H155Z"/><path class="cls-1" d="M165.63.66a1.92,1.92,0,1,1-1.92,1.92A1.92,1.92,0,0,1,165.63.66ZM164,5.94h3.3V16.63H164Z"/><path class="cls-1" d="M176.89,9.4a2,2,0,0,0-1.63-.82,2.5,2.5,0,0,0-2.64,2.71,2.5,2.5,0,0,0,2.64,2.7,2.09,2.09,0,0,0,1.63-.81l2.18,2.29a5.38,5.38,0,0,1-3.81,1.43c-3.3,0-5.94-2.2-5.94-5.61s2.64-5.61,5.94-5.61a5.34,5.34,0,0,1,3.81,1.43Z"/><path class="cls-1" d="M190.38,14.79a5.83,5.83,0,0,1-4.51,2.11c-3.3,0-5.94-2.2-5.94-5.61s2.64-5.61,5.94-5.61c3.08,0,5,2.2,5,5.61v1h-7.65a2.46,2.46,0,0,0,2.48,2.07,2.82,2.82,0,0,0,2.36-1.3Zm-2.8-4.71a2,2,0,0,0-2-2,2.2,2.2,0,0,0-2.33,2Z"/><path class="cls-1" d="M200,1.06H210.4V4.22h-7V7.39h6.49v3.17h-6.49v6.07H200Z"/><path class="cls-1" d="M212.44,5.94h3.3V7.66h0a3.25,3.25,0,0,1,3.08-2,4.28,4.28,0,0,1,1.1.11v3a5.25,5.25,0,0,0-1.41-.22c-2.51,0-2.82,1.45-2.82,3.59v4.46h-3.3Z"/><path class="cls-1" d="M226.54,5.68c3.3,0,5.94,2.2,5.94,5.61s-2.64,5.61-5.94,5.61-5.94-2.2-5.94-5.61S223.24,5.68,226.54,5.68Zm0,8.31a2.5,2.5,0,0,0,2.64-2.7,2.64,2.64,0,1,0-5.28,0A2.5,2.5,0,0,0,226.54,14Z"/><path class="cls-1" d="M234.42,5.94h3.17V7.39h0a3.48,3.48,0,0,1,3.13-1.71c3.34,0,4,2.2,4,5.06v5.89h-3.3V11.4c0-1.23,0-2.82-1.72-2.82s-2,1.34-2,2.73v5.32h-3.3Z"/><path class="cls-1" d="M254.33,8.58h-2.9v3.57c0,1.14.13,2,1.56,2a2.41,2.41,0,0,0,1.34-.31v2.75a7,7,0,0,1-2.31.33c-2.2,0-3.9-.9-3.9-3.24V8.58H246V5.94h2.11V2.77h3.31V5.94h2.9Z"/><path class="cls-1" d="M266.12,14.79a5.8,5.8,0,0,1-4.51,2.11c-3.3,0-5.94-2.2-5.94-5.61s2.64-5.61,5.94-5.61c3.08,0,5,2.2,5,5.61v1H259a2.47,2.47,0,0,0,2.49,2.07,2.8,2.8,0,0,0,2.35-1.3Zm-2.79-4.71a2,2,0,0,0-2-2,2.2,2.2,0,0,0-2.33,2Z"/><path class="cls-1" d="M268.63,5.94h3.17V7.39h0A3.48,3.48,0,0,1,275,5.68c3.34,0,4,2.2,4,5.06v5.89h-3.3V11.4c0-1.23,0-2.82-1.72-2.82s-2,1.34-2,2.73v5.32h-3.3Z"/><path class="cls-1" d="M292.48,16.63h-3v-1.4h0a4.15,4.15,0,0,1-3.28,1.67c-3.17,0-5.26-2.29-5.26-5.52,0-3,1.85-5.7,4.89-5.7a4,4,0,0,1,3.38,1.4h.05V0h3.3Zm-5.68-8a2.5,2.5,0,0,0-2.64,2.71,2.64,2.64,0,1,0,5.28,0A2.5,2.5,0,0,0,286.8,8.58Z"/><path class="cls-1" d="M306.91,1.85c-1.78,2.79-2.84,5-2.84,8.45s1.06,5.65,2.84,8.45l-2.27,1.32,0-.09a16.69,16.69,0,0,1-3.17-9.68A16.69,16.69,0,0,1,304.6.62l0-.09Z"/><path class="cls-1" d="M309,1.06h5.81c2.73,0,5.7.57,5.7,4a3.52,3.52,0,0,1-2.68,3.43v0a3.75,3.75,0,0,1,3.41,3.81c0,3.26-3.08,4.33-5.86,4.33H309Zm3.44,6.22h2.48c1.06,0,2.16-.44,2.16-1.69S315.8,4,314.72,4h-2.33Zm0,6.45h3.08c1.08,0,2.29-.46,2.29-1.83s-1.65-1.71-2.78-1.71h-2.59Z"/><path class="cls-1" d="M329.5,15.29h0a3.85,3.85,0,0,1-3.39,1.61c-2,0-3.81-1.15-3.81-3.3,0-3.7,4.49-3.76,7.24-3.76a2,2,0,0,0-2.11-1.92,3.52,3.52,0,0,0-2.68,1.28L323,7.39a6.92,6.92,0,0,1,4.71-1.71c3.85,0,4.88,2,4.88,5.52v5.43h-3ZM328.69,12c-1,0-3.26.09-3.26,1.54,0,.79.84,1.16,1.56,1.16,1.3,0,2.51-.68,2.51-2V12Z"/><path class="cls-1" d="M340.66,9.09a2.36,2.36,0,0,0-1.92-.9c-.55,0-1.21.24-1.21.88,0,1.58,5.57.24,5.57,4.31,0,2.73-2.64,3.52-4.93,3.52a5.9,5.9,0,0,1-4.2-1.45l2-2.23a2.87,2.87,0,0,0,2.33,1.17c.75,0,1.5-.2,1.5-.77,0-1.72-5.57-.26-5.57-4.33,0-2.51,2.25-3.61,4.49-3.61a5.42,5.42,0,0,1,4,1.4Z"/><path class="cls-1" d="M346.49.66a1.92,1.92,0,1,1-1.92,1.92A1.92,1.92,0,0,1,346.49.66Zm-1.66,5.28h3.31V16.63h-3.31Z"/><path class="cls-1" d="M357.75,9.4a2,2,0,0,0-1.63-.82,2.5,2.5,0,0,0-2.64,2.71,2.5,2.5,0,0,0,2.64,2.7,2.09,2.09,0,0,0,1.63-.81l2.18,2.29a5.4,5.4,0,0,1-3.81,1.43c-3.3,0-5.94-2.2-5.94-5.61s2.64-5.61,5.94-5.61a5.36,5.36,0,0,1,3.81,1.43Z"/><path class="cls-1" d="M360.41,18.75c1.78-2.8,2.84-5,2.84-8.45s-1.06-5.66-2.84-8.45L362.68.53l0,.09a16.77,16.77,0,0,1,3.17,9.68A16.77,16.77,0,0,1,362.72,20l0,.09Z"/><rect class="cls-2" x="1" y="84.37" width="451.57" height="275.68"/><rect class="cls-3" x="30.35" y="105.27" width="119.35" height="57.91"/><path class="cls-4" d="M51.46,127.85h6.65v2H53.64v2h4.13v2H53.64v3.86H51.46Z"/><path class="cls-4" d="M59.67,127.85h3.84c2,0,3.74.7,3.74,3a2.55,2.55,0,0,1-2.14,2.71l2.52,4.19H65l-2.07-4H61.86v4H59.67Zm2.19,4.1h1.29c.8,0,1.83,0,1.83-1.11s-.89-1.15-1.69-1.15H61.86Z"/><path class="cls-4" d="M73.57,127.59a5.22,5.22,0,1,1-5.36,5.21A5,5,0,0,1,73.57,127.59Zm0,8.41a3.2,3.2,0,1,0-3.09-3.2A3,3,0,0,0,73.57,136Z"/><path class="cls-4" d="M80.39,127.85h3l4.22,6.89h0v-6.89h2.18v9.91H86.94l-4.33-7.06h0v7.06H80.39Z"/><path class="cls-4" d="M93.72,129.78H90.89v-1.93h7.85v1.93H95.91v8H93.72Z"/><path class="cls-4" d="M99.92,127.85h6.74v2h-4.55v1.85h4.3v2h-4.3v2h4.8v2h-7Z"/><path class="cls-4" d="M108.66,127.85h3l4.22,6.89h0v-6.89h2.19v9.91H115.2l-4.33-7.06h0v7.06h-2.19Z"/><path class="cls-4" d="M120.07,127.85h3.28c3.19,0,5.87,1.35,5.87,5,0,3.21-2.62,4.93-5.58,4.93h-3.57Zm2.19,7.9h1.13c2,0,3.56-.77,3.56-3,0-1.95-1.56-2.86-3.41-2.86h-1.28Z"/><rect class="cls-3" x="164.71" y="105.27" width="119.35" height="57.91"/><path class="cls-4" d="M185.82,127.85h6.65v2H188v2h4.14v2H188v3.86h-2.18Z"/><path class="cls-4" d="M194,127.85h3.83c2,0,3.74.7,3.74,3a2.55,2.55,0,0,1-2.14,2.71l2.52,4.19h-2.62l-2.07-4h-1.08v4H194Zm2.18,4.1h1.29c.8,0,1.83,0,1.83-1.11s-.89-1.15-1.69-1.15h-1.43Z"/><path class="cls-4" d="M207.93,127.59a5.22,5.22,0,1,1-5.35,5.21A5,5,0,0,1,207.93,127.59Zm0,8.41a3.2,3.2,0,1,0-3.09-3.2A3,3,0,0,0,207.93,136Z"/><path class="cls-4" d="M214.76,127.85h3l4.21,6.89h0v-6.89h2.18v9.91H221.3L217,130.7h0v7.06h-2.18Z"/><path class="cls-4" d="M228.08,129.78h-2.83v-1.93h7.85v1.93h-2.83v8h-2.19Z"/><path class="cls-4" d="M234.29,127.85H241v2h-4.55v1.85h4.3v2h-4.3v2h4.81v2h-7Z"/><path class="cls-4" d="M243,127.85h3l4.22,6.89h0v-6.89h2.18v9.91h-2.86l-4.32-7.06h0v7.06H243Z"/><path class="cls-4" d="M254.43,127.85h3.28c3.19,0,5.87,1.35,5.87,5,0,3.21-2.62,4.93-5.58,4.93h-3.57Zm2.19,7.9h1.13c2,0,3.56-.77,3.56-3,0-1.95-1.56-2.86-3.4-2.86h-1.29Z"/><rect class="cls-3" x="299.79" y="105.27" width="119.35" height="57.91"/><path class="cls-4" d="M320.89,127.85h6.65v2h-4.46v2h4.13v2h-4.13v3.86h-2.19Z"/><path class="cls-4" d="M329.11,127.85H333c2,0,3.74.7,3.74,3a2.55,2.55,0,0,1-2.15,2.71l2.53,4.19h-2.62l-2.08-4h-1.08v4h-2.18Zm2.18,4.1h1.29c.8,0,1.84,0,1.84-1.11s-.9-1.15-1.7-1.15h-1.43Z"/><path class="cls-4" d="M343,127.59a5.22,5.22,0,1,1-5.35,5.21A5,5,0,0,1,343,127.59Zm0,8.41a3.2,3.2,0,1,0-3.08-3.2A3,3,0,0,0,343,136Z"/><path class="cls-4" d="M349.83,127.85h3l4.21,6.89h0v-6.89h2.19v9.91h-2.86L352,130.7h0v7.06h-2.18Z"/><path class="cls-4" d="M363.16,129.78h-2.83v-1.93h7.84v1.93h-2.83v8h-2.18Z"/><path class="cls-4" d="M369.36,127.85h6.74v2h-4.56v1.85h4.3v2h-4.3v2h4.81v2h-7Z"/><path class="cls-4" d="M378.1,127.85h3l4.21,6.89h0v-6.89h2.18v9.91h-2.85l-4.33-7.06h0v7.06H378.1Z"/><path class="cls-4" d="M389.51,127.85h3.27c3.2,0,5.87,1.35,5.87,5,0,3.21-2.62,4.93-5.57,4.93h-3.57Zm2.18,7.9h1.13c2,0,3.56-.77,3.56-3,0-1.95-1.55-2.86-3.4-2.86h-1.29Z"/><rect class="cls-5" x="209.32" y="30.39" width="29.72" height="388.83" transform="translate(448.98 0.63) rotate(90)"/><path class="cls-6" d="M223.57,219.86h1.81l4.31,9.92h-2.46l-.86-2.1h-3.85l-.83,2.1h-2.41Zm.84,2.88-1.21,3.09h2.43Z"/><path class="cls-6" d="M230.68,219.86h3.68c2.06,0,3.77.66,3.77,3s-1.58,3-3.67,3h-1.6v3.87h-2.18Zm2.18,4.2h1.46c.77,0,1.54-.26,1.54-1.19s-1-1.16-1.87-1.16h-1.13Z"/><path class="cls-6" d="M239.47,219.86h2.19v9.92h-2.19Z"/><rect class="cls-5" x="209.59" y="-16.97" width="29.72" height="389.37" transform="translate(402.16 -46.74) rotate(90)"/><path class="cls-6" d="M175.33,172.77h3.84c2,0,3.74.7,3.74,3a2.55,2.55,0,0,1-2.14,2.71l2.52,4.19h-2.62l-2.08-4h-1.07v4h-2.19Zm2.19,4.1h1.28c.8,0,1.84,0,1.84-1.11s-.9-1.15-1.7-1.15h-1.42Z"/><path class="cls-6" d="M189.22,172.51a5.22,5.22,0,1,1-5.35,5.21A5,5,0,0,1,189.22,172.51Zm0,8.41a3.2,3.2,0,1,0-3.08-3.2A3,3,0,0,0,189.22,180.92Z"/><path class="cls-6" d="M204.41,178.86a4.18,4.18,0,0,1-8.36,0v-6.09h2.19v6a2,2,0,1,0,4,0v-6h2.18Z"/><path class="cls-6" d="M208.34,174.7h-2.83v-1.93h7.85v1.93h-2.83v8h-2.19Z"/><path class="cls-6" d="M214.43,172.77h2.19v9.91h-2.19Z"/><path class="cls-6" d="M218.6,172.77h3l4.22,6.89h0v-6.89H228v9.91h-2.85l-4.33-7.06h0v7.06H218.6Z"/><path class="cls-6" d="M239,182a8.92,8.92,0,0,1-4.16,1,5.22,5.22,0,1,1,0-10.43,5.59,5.59,0,0,1,3.95,1.28l-1.54,1.68a3,3,0,0,0-2.41-.94,3.2,3.2,0,0,0,0,6.39,4.32,4.32,0,0,0,2.06-.49v-1.61h-1.78v-2H239Z"/><path class="cls-6" d="M245.13,172.77h2.19v7.9h4.05v2h-6.24Z"/><path class="cls-6" d="M255.83,172.77h1.81l4.31,9.91h-2.46l-.86-2.1h-3.85l-.83,2.1h-2.41Zm.84,2.88-1.2,3.08h2.42Z"/><path class="cls-6" d="M264.09,178.45l-3.73-5.68h2.72l2.1,3.71,2.23-3.71H270l-3.72,5.68v4.23h-2.19Z"/><path class="cls-6" d="M270.81,172.77h6.74v2H273v1.85h4.3v2H273v2h4.81v2h-7Z"/><path class="cls-6" d="M279.55,172.77h3.83c2,0,3.74.7,3.74,3a2.55,2.55,0,0,1-2.14,2.71l2.52,4.19h-2.62l-2.07-4h-1.08v4h-2.18Zm2.18,4.1H283c.8,0,1.83,0,1.83-1.11s-.89-1.15-1.69-1.15h-1.43Z"/><rect class="cls-5" x="209.32" y="82.05" width="29.72" height="388.83" transform="translate(-52.29 500.64) rotate(-90)"/><path class="cls-6" d="M197.84,271.22h3.28c3.19,0,5.87,1.24,5.87,4.55,0,2.94-2.62,4.51-5.58,4.51h-3.57Zm2.19,7.22h1.13c2,0,3.56-.71,3.56-2.77,0-1.78-1.56-2.61-3.4-2.61H200Z"/><path class="cls-6" d="M211.73,271.22h1.81l4.31,9.06h-2.46l-.86-1.92h-3.85l-.83,1.92h-2.4Zm.84,2.63-1.2,2.82h2.42Z"/><path class="cls-6" d="M219.47,273h-2.83v-1.76h7.85V273h-2.83v7.3h-2.19Z"/><path class="cls-6" d="M227.57,271.22h1.8l4.32,9.06h-2.47l-.85-1.92h-3.86l-.82,1.92h-2.41Zm.84,2.63-1.21,2.82h2.42Z"/><path class="cls-6" d="M234.68,271.22h3.69c1.74,0,3.63.33,3.63,2.3a2.09,2.09,0,0,1-1.71,2v0a2.25,2.25,0,0,1,2.17,2.22c0,1.89-2,2.52-3.72,2.52h-4.06Zm2.18,3.62h1.58c.68,0,1.38-.26,1.38-1s-.79-.94-1.47-.94h-1.49Zm0,3.75h2c.69,0,1.46-.27,1.46-1.06s-1.05-1-1.77-1h-1.65Z"/><path class="cls-6" d="M247,271.22h1.81l4.31,9.06h-2.46l-.86-1.92H246l-.83,1.92h-2.4Zm.84,2.63-1.2,2.82h2.42Z"/><path class="cls-6" d="M259,273.43a2.21,2.21,0,0,0-1.58-.6c-.62,0-1.47.26-1.47.93,0,1.65,4.57.59,4.57,3.77,0,2-1.78,3-3.83,3a5,5,0,0,1-3.33-1.14l1.55-1.56a2.52,2.52,0,0,0,1.91.86c.71,0,1.51-.31,1.51-.95,0-1.66-4.65-.77-4.65-3.79,0-1.93,1.84-2.94,3.78-2.94a4.74,4.74,0,0,1,3,.94Z"/><path class="cls-6" d="M262.24,271.22H269v1.84h-4.55v1.69h4.3v1.84h-4.3v1.85h4.8v1.84h-7Z"/><rect class="cls-5" x="209.86" y="134.52" width="29.72" height="388.83" transform="translate(-104.21 553.65) rotate(-90)"/><path class="cls-6" d="M230.61,323.68h1.81l4.31,9.06h-2.46l-.86-1.92h-3.85l-.83,1.92h-2.41Zm.84,2.64-1.2,2.81h2.42Z"/><path class="cls-6" d="M237.69,323.68h2.19v9.06h-2.19Z"/><path class="cls-1" d="M55.65,64.2h-2v-.93h0a2.2,2.2,0,0,1-2,1.1c-2.13,0-2.52-1.4-2.52-3.23V57.39h2.1v3.33c0,.79,0,1.8,1.09,1.8s1.26-.86,1.26-1.74V57.39h2.1Z"/><path class="cls-1" d="M61,59.39a1.53,1.53,0,0,0-1.22-.57c-.35,0-.77.15-.77.56,0,1,3.54.15,3.54,2.74,0,1.74-1.68,2.25-3.14,2.25a3.72,3.72,0,0,1-2.67-.93L58,62a1.85,1.85,0,0,0,1.49.74c.47,0,.95-.13.95-.49,0-1.09-3.55-.17-3.55-2.76,0-1.6,1.43-2.3,2.86-2.3a3.44,3.44,0,0,1,2.52.9Z"/><path class="cls-1" d="M70.06,63a3.68,3.68,0,0,1-2.87,1.35,3.58,3.58,0,1,1,0-7.15c2,0,3.19,1.4,3.19,3.57v.66H65.51a1.56,1.56,0,0,0,1.58,1.32,1.78,1.78,0,0,0,1.5-.83Zm-1.78-3A1.26,1.26,0,0,0,67,58.73,1.4,1.4,0,0,0,65.51,60Z"/><path class="cls-1" d="M71.65,57.39h2.1v1.09h0a2.09,2.09,0,0,1,2-1.26,3,3,0,0,1,.7.07v1.92a3.37,3.37,0,0,0-.89-.14c-1.6,0-1.8.93-1.8,2.28V64.2h-2.1Z"/><path class="cls-1" d="M85.35,59.39a1.53,1.53,0,0,0-1.22-.57c-.35,0-.77.15-.77.56,0,1,3.54.15,3.54,2.74,0,1.74-1.68,2.25-3.14,2.25a3.72,3.72,0,0,1-2.67-.93L82.36,62a1.85,1.85,0,0,0,1.49.74c.47,0,1-.13,1-.49,0-1.09-3.55-.17-3.55-2.76,0-1.6,1.43-2.3,2.86-2.3a3.44,3.44,0,0,1,2.52.9Z"/><path class="cls-1" d="M92.61,59.07H90.76v2.27c0,.73.09,1.26,1,1.26a1.49,1.49,0,0,0,.85-.2v1.76a4.55,4.55,0,0,1-1.47.21c-1.4,0-2.48-.58-2.48-2.06V59.07H87.32V57.39h1.34v-2h2.1v2h1.85Z"/><path class="cls-1" d="M97.2,57.22a3.58,3.58,0,1,1-3.78,3.57A3.56,3.56,0,0,1,97.2,57.22Zm0,5.3a1.73,1.73,0,1,0-1.68-1.73A1.59,1.59,0,0,0,97.2,62.52Z"/><path class="cls-1" d="M102.21,57.39h2.11v1.09h0a2.09,2.09,0,0,1,2-1.26,3,3,0,0,1,.7.07v1.92a3.31,3.31,0,0,0-.89-.14c-1.6,0-1.79.93-1.79,2.28V64.2h-2.11Z"/><path class="cls-1" d="M111.83,65.3c-.56,1.45-.88,2.26-2.88,2.26a4.91,4.91,0,0,1-1.57-.25l.28-1.73a2.37,2.37,0,0,0,1,.21c1,0,1.11-.4,1.4-1.14l.16-.4-3-6.86h2.27l1.75,4.5h0l1.5-4.5h2.16Z"/><path class="cls-1" d="M123.13,56.63l-2,1.75L120,57l3.24-2.73h2V64.2h-2Z"/><path class="cls-1" d="M185,64.2h-2v-.93h0a2.2,2.2,0,0,1-2,1.1c-2.13,0-2.52-1.4-2.52-3.23V57.39h2.1v3.33c0,.79,0,1.8,1.09,1.8s1.26-.86,1.26-1.74V57.39H185Z"/><path class="cls-1" d="M190.33,59.39a1.53,1.53,0,0,0-1.22-.57c-.35,0-.77.15-.77.56,0,1,3.54.15,3.54,2.74,0,1.74-1.68,2.25-3.14,2.25a3.72,3.72,0,0,1-2.67-.93L187.34,62a1.86,1.86,0,0,0,1.49.74c.47,0,.95-.13.95-.49,0-1.09-3.54-.17-3.54-2.76,0-1.6,1.42-2.3,2.85-2.3a3.43,3.43,0,0,1,2.52.9Z"/><path class="cls-1" d="M199.4,63a3.68,3.68,0,0,1-2.87,1.35,3.58,3.58,0,1,1,0-7.15c2,0,3.19,1.4,3.19,3.57v.66h-4.87a1.57,1.57,0,0,0,1.58,1.32,1.78,1.78,0,0,0,1.5-.83Zm-1.78-3a1.26,1.26,0,0,0-1.29-1.29A1.4,1.4,0,0,0,194.85,60Z"/><path class="cls-1" d="M201,57.39h2.1v1.09h0a2.09,2.09,0,0,1,2-1.26,3,3,0,0,1,.7.07v1.92a3.31,3.31,0,0,0-.89-.14c-1.6,0-1.8.93-1.8,2.28V64.2H201Z"/><path class="cls-1" d="M214.69,59.39a1.53,1.53,0,0,0-1.22-.57c-.35,0-.77.15-.77.56,0,1,3.54.15,3.54,2.74,0,1.74-1.68,2.25-3.14,2.25a3.72,3.72,0,0,1-2.67-.93L211.7,62a1.86,1.86,0,0,0,1.49.74c.47,0,.95-.13.95-.49,0-1.09-3.54-.17-3.54-2.76,0-1.6,1.43-2.3,2.85-2.3a3.47,3.47,0,0,1,2.53.9Z"/><path class="cls-1" d="M222,59.07h-1.84v2.27c0,.73.08,1.26,1,1.26a1.49,1.49,0,0,0,.85-.2v1.76a4.55,4.55,0,0,1-1.47.21c-1.4,0-2.48-.58-2.48-2.06V59.07h-1.34V57.39H218v-2h2.11v2H222Z"/><path class="cls-1" d="M226.55,57.22a3.58,3.58,0,1,1-3.79,3.57A3.55,3.55,0,0,1,226.55,57.22Zm0,5.3a1.73,1.73,0,1,0-1.69-1.73A1.59,1.59,0,0,0,226.55,62.52Z"/><path class="cls-1" d="M231.56,57.39h2.1v1.09h0a2.1,2.1,0,0,1,2-1.26,3.14,3.14,0,0,1,.7.07v1.92a3.45,3.45,0,0,0-.9-.14c-1.6,0-1.79.93-1.79,2.28V64.2h-2.1Z"/><path class="cls-1" d="M241.18,65.3c-.56,1.45-.89,2.26-2.89,2.26a5,5,0,0,1-1.57-.25l.28-1.73a2.37,2.37,0,0,0,1,.21c1,0,1.11-.4,1.4-1.14l.16-.4-3-6.86h2.27l1.75,4.5h0l1.5-4.5h2.16Z"/><path class="cls-1" d="M249.13,62,253,58.51a2,2,0,0,0,.88-1.39,1.12,1.12,0,0,0-1.22-1.07,1.26,1.26,0,0,0-1.29,1.26l-2.1-.16c.13-2,1.56-3,3.5-3a2.89,2.89,0,0,1,3.21,3,3.27,3.27,0,0,1-1.3,2.66l-3,2.59h4.4V64.2h-6.92Z"/><path class="cls-1" d="M327.24,64.2h-2v-.93h0a2.2,2.2,0,0,1-2,1.1c-2.13,0-2.52-1.4-2.52-3.23V57.39h2.1v3.33c0,.79,0,1.8,1.09,1.8s1.26-.86,1.26-1.74V57.39h2.1Z"/><path class="cls-1" d="M332.58,59.39a1.53,1.53,0,0,0-1.22-.57c-.35,0-.77.15-.77.56,0,1,3.54.15,3.54,2.74,0,1.74-1.68,2.25-3.14,2.25a3.72,3.72,0,0,1-2.67-.93L329.59,62a1.85,1.85,0,0,0,1.49.74c.47,0,.95-.13.95-.49,0-1.09-3.54-.17-3.54-2.76,0-1.6,1.42-2.3,2.85-2.3a3.44,3.44,0,0,1,2.52.9Z"/><path class="cls-1" d="M341.65,63a3.68,3.68,0,0,1-2.87,1.35,3.58,3.58,0,1,1,0-7.15c2,0,3.19,1.4,3.19,3.57v.66H337.1a1.57,1.57,0,0,0,1.58,1.32,1.78,1.78,0,0,0,1.5-.83Zm-1.78-3a1.26,1.26,0,0,0-1.29-1.29A1.4,1.4,0,0,0,337.1,60Z"/><path class="cls-1" d="M343.24,57.39h2.1v1.09h0a2.09,2.09,0,0,1,2-1.26,3,3,0,0,1,.7.07v1.92a3.37,3.37,0,0,0-.89-.14c-1.6,0-1.8.93-1.8,2.28V64.2h-2.1Z"/><path class="cls-1" d="M356.94,59.39a1.53,1.53,0,0,0-1.22-.57c-.35,0-.77.15-.77.56,0,1,3.54.15,3.54,2.74,0,1.74-1.68,2.25-3.14,2.25a3.72,3.72,0,0,1-2.67-.93L354,62a1.85,1.85,0,0,0,1.49.74c.47,0,.95-.13.95-.49,0-1.09-3.54-.17-3.54-2.76,0-1.6,1.42-2.3,2.85-2.3a3.44,3.44,0,0,1,2.52.9Z"/><path class="cls-1" d="M364.2,59.07h-1.85v2.27c0,.73.09,1.26,1,1.26a1.49,1.49,0,0,0,.85-.2v1.76a4.55,4.55,0,0,1-1.47.21c-1.4,0-2.48-.58-2.48-2.06V59.07h-1.34V57.39h1.34v-2h2.1v2h1.85Z"/><path class="cls-1" d="M368.79,57.22A3.58,3.58,0,1,1,365,60.79,3.55,3.55,0,0,1,368.79,57.22Zm0,5.3a1.73,1.73,0,1,0-1.68-1.73A1.6,1.6,0,0,0,368.79,62.52Z"/><path class="cls-1" d="M373.8,57.39h2.11v1.09h0a2.1,2.1,0,0,1,2-1.26,3.14,3.14,0,0,1,.7.07v1.92a3.45,3.45,0,0,0-.9-.14c-1.6,0-1.79.93-1.79,2.28V64.2H373.8Z"/><path class="cls-1" d="M383.42,65.3c-.56,1.45-.88,2.26-2.88,2.26a5,5,0,0,1-1.57-.25l.28-1.73a2.37,2.37,0,0,0,1,.21c.95,0,1.11-.4,1.4-1.14l.16-.4-3-6.86h2.27l1.75,4.5h0l1.5-4.5h2.16Z"/><path class="cls-1" d="M393.71,58.19h.69c.77,0,1.6-.17,1.6-1.11a1.13,1.13,0,0,0-1.24-1,1.21,1.21,0,0,0-1.23.92l-2.31-.48c.44-1.72,1.85-2.38,3.53-2.38s3.35.86,3.35,2.76A2.07,2.07,0,0,1,396.4,59v.05a2.19,2.19,0,0,1,1.87,2.31c0,2-1.63,3-3.58,3a3.28,3.28,0,0,1-3.55-2.57l2.21-.52a1.33,1.33,0,0,0,1.47,1.15,1.19,1.19,0,0,0,1.34-1.27c0-1.12-1-1.15-2-1.15h-.49Z"/><rect class="cls-7" x="25.04" y="101.69" width="398.3" height="95.49"/><rect class="cls-7" x="25.04" y="205.58" width="398.3" height="39.6"/><rect class="cls-7" x="25.04" y="257.16" width="398.3" height="39.6"/><rect class="cls-7" x="25.04" y="309.13" width="398.3" height="39.6"/><rect class="cls-7" x="482.28" y="89.73" width="48.64" height="39.6"/><path class="cls-1" d="M478.46,138.28a2.36,2.36,0,0,0-1.88-.82,3.22,3.22,0,0,0-.07,6.39,2.36,2.36,0,0,0,2-1.06l1.83,1.36a4.35,4.35,0,0,1-3.59,1.72,5.21,5.21,0,1,1,0-10.42,4.24,4.24,0,0,1,3.35,1.45Z"/><path class="cls-1" d="M484.82,138.64a3.58,3.58,0,1,1-3.78,3.57A3.55,3.55,0,0,1,484.82,138.64Zm0,5.3a1.73,1.73,0,1,0-1.68-1.73A1.6,1.6,0,0,0,484.82,143.94Z"/><path class="cls-1" d="M489.83,138.81h2v.92h0a2.22,2.22,0,0,1,2-1.09c2.13,0,2.52,1.4,2.52,3.22v3.76h-2.1v-3.34c0-.78,0-1.79-1.09-1.79s-1.26.85-1.26,1.74v3.39h-2.11Z"/><path class="cls-1" d="M502.51,140.49h-1.85v2.27c0,.73.08,1.26,1,1.26a1.5,1.5,0,0,0,.86-.2v1.75a4.29,4.29,0,0,1-1.47.21c-1.4,0-2.48-.57-2.48-2.05v-3.24h-1.35v-1.68h1.35v-2h2.1v2h1.85Z"/><path class="cls-1" d="M507.84,144.76h0a2.44,2.44,0,0,1-2.15,1,2.18,2.18,0,0,1-2.43-2.1c0-2.35,2.86-2.39,4.61-2.39a1.25,1.25,0,0,0-1.34-1.22,2.26,2.26,0,0,0-1.71.81l-1.12-1.15a4.38,4.38,0,0,1,3-1.09c2.46,0,3.11,1.25,3.11,3.52v3.46h-1.93Zm-.52-2.13c-.64,0-2.07.06-2.07,1,0,.51.53.74,1,.74.83,0,1.6-.43,1.6-1.27v-.45Z"/><path class="cls-1" d="M512.17,135.45a1.22,1.22,0,1,1-1.22,1.21A1.21,1.21,0,0,1,512.17,135.45Zm-1.06,3.36h2.11v6.81h-2.11Z"/><path class="cls-1" d="M514.73,138.81h2v.92h0a2.22,2.22,0,0,1,2-1.09c2.13,0,2.52,1.4,2.52,3.22v3.76h-2.1v-3.34c0-.78,0-1.79-1.09-1.79s-1.26.85-1.26,1.74v3.39h-2.1Z"/><path class="cls-1" d="M529.21,144.44a3.73,3.73,0,0,1-2.88,1.34,3.58,3.58,0,1,1,0-7.14c2,0,3.2,1.4,3.2,3.57v.66h-4.88a1.57,1.57,0,0,0,1.59,1.32,1.8,1.8,0,0,0,1.5-.83Zm-1.78-3a1.26,1.26,0,0,0-1.29-1.29,1.41,1.41,0,0,0-1.49,1.29Z"/><path class="cls-1" d="M530.8,138.81h2.1v1.09h0a2.07,2.07,0,0,1,2-1.26,2.6,2.6,0,0,1,.7.07v1.92a3.38,3.38,0,0,0-.9-.14c-1.59,0-1.79.92-1.79,2.28v2.85h-2.1Z"/><path class="cls-1" d="M540.35,140.81a1.5,1.5,0,0,0-1.22-.57c-.35,0-.77.15-.77.56,0,1,3.54.15,3.54,2.74,0,1.74-1.68,2.24-3.13,2.24a3.72,3.72,0,0,1-2.68-.92l1.28-1.42a1.81,1.81,0,0,0,1.48.75c.48,0,.95-.13.95-.49,0-1.1-3.54-.17-3.54-2.76,0-1.6,1.43-2.3,2.86-2.3a3.42,3.42,0,0,1,2.52.9Z"/></g></g></svg>