<svg xmlns="http://www.w3.org/2000/svg" viewBox="0 0 202.3 297.14"><defs><style>.cls-1{fill:#d7d6cb;}.cls-1,.cls-2,.cls-5,.cls-6{stroke:#999;}.cls-1,.cls-2{stroke-linejoin:round;}.cls-2{fill:#ee1e3a;}.cls-3{fill:#231f20;}.cls-4{fill:#fff;}.cls-5,.cls-6{fill:none;stroke-miterlimit:10;stroke-width:2px;}.cls-6{stroke-dasharray:5.06 5.06;}</style></defs><g id="Layer_2" data-name="Layer 2"><g id="Layer_1-2" data-name="Layer 1"><rect class="cls-1" x="39.91" y="0.5" width="139.3" height="239.48"/><rect class="cls-2" x="49.7" y="9.9" width="119.35" height="57.91"/><path class="cls-3" d="M73.52,252.37H70.69v-1.94h7.84v1.94H75.7v8H73.52Z"/><path class="cls-3" d="M81.47,249.76v4.71h0a2,2,0,0,1,1.9-1.1c2.13,0,2.52,1.4,2.52,3.23v3.75h-2.1V257c0-.79,0-1.8-1.09-1.8s-1.26.86-1.26,1.74v3.39h-2.1V249.76Z"/><path class="cls-3" d="M93.85,259.17A3.68,3.68,0,0,1,91,260.52a3.58,3.58,0,1,1,0-7.15c2,0,3.19,1.4,3.19,3.58v.65H89.3a1.56,1.56,0,0,0,1.58,1.32,1.81,1.81,0,0,0,1.5-.82Zm-1.78-3a1.26,1.26,0,0,0-1.29-1.29,1.4,1.4,0,0,0-1.48,1.29Z"/><path class="cls-3" d="M99.58,253.54h2v.93h0a2.2,2.2,0,0,1,2-1.1,2.14,2.14,0,0,1,2.1,1.22,2.21,2.21,0,0,1,2.16-1.22c1.85,0,2.41,1.31,2.41,3v4h-2.11v-4c0-.63-.23-1.17-.92-1.17-1,0-1.27.69-1.27,1.53v3.6h-2.11v-3.6c0-.5,0-1.53-.93-1.53s-1.26.86-1.26,1.74v3.39H99.58Z"/><path class="cls-3" d="M115.29,253.37a3.58,3.58,0,1,1-3.78,3.58A3.56,3.56,0,0,1,115.29,253.37Zm0,5.3a1.73,1.73,0,1,0-1.68-1.72A1.59,1.59,0,0,0,115.29,258.67Z"/><path class="cls-3" d="M120.3,253.54h2v.93h0a2.2,2.2,0,0,1,2-1.1c2.13,0,2.52,1.4,2.52,3.23v3.75h-2.1V257c0-.79,0-1.8-1.09-1.8s-1.26.86-1.26,1.74v3.39H120.3Z"/><path class="cls-3" d="M131.87,253.37a3.58,3.58,0,1,1-3.78,3.58A3.55,3.55,0,0,1,131.87,253.37Zm0,5.3a1.73,1.73,0,1,0-1.68-1.72A1.59,1.59,0,0,0,131.87,258.67Z"/><path class="cls-3" d="M136.91,249.76H139v10.59h-2.1Z"/><path class="cls-3" d="M141.6,250.18a1.22,1.22,0,1,1-1.22,1.22A1.22,1.22,0,0,1,141.6,250.18Zm-1,3.36h2.1v6.81h-2.1Z"/><path class="cls-3" d="M148.8,255.22H147v2.27c0,.73.08,1.26,1,1.26a1.6,1.6,0,0,0,.86-.19v1.75a4.33,4.33,0,0,1-1.47.21c-1.41,0-2.48-.58-2.48-2.06v-3.24H143.5v-1.68h1.35v-2H147v2h1.85Z"/><path class="cls-3" d="M152,249.76v4.71h0a2,2,0,0,1,1.9-1.1c2.13,0,2.52,1.4,2.52,3.23v3.75h-2.1V257c0-.79,0-1.8-1.09-1.8S152,256.08,152,257v3.39h-2.1V249.76Z"/><path class="cls-3" d="M84,267.23h6.65v2H86.15v2h4.13v2H86.15v3.87H84Z"/><path class="cls-3" d="M98.47,277.15h-2v-.93h0a2.2,2.2,0,0,1-2,1.1c-2.13,0-2.52-1.4-2.52-3.22v-3.76H94v3.34c0,.78,0,1.79,1.09,1.79s1.26-.86,1.26-1.74v-3.39h2.1Z"/><path class="cls-3" d="M100,266.56h2.1v10.59H100Z"/><path class="cls-3" d="M103.62,266.56h2.1v10.59h-2.1Z"/><path class="cls-3" d="M115.23,272.35a1.51,1.51,0,0,0-1.22-.58c-.35,0-.77.16-.77.56,0,1,3.54.16,3.54,2.75,0,1.73-1.68,2.24-3.13,2.24a3.73,3.73,0,0,1-2.68-.93l1.28-1.41a1.83,1.83,0,0,0,1.48.74c.48,0,1-.12,1-.49,0-1.09-3.54-.17-3.54-2.76,0-1.6,1.43-2.3,2.86-2.3a3.46,3.46,0,0,1,2.52.9Z"/><path class="cls-3" d="M122.5,272h-1.85v2.27c0,.73.08,1.26,1,1.26a1.6,1.6,0,0,0,.86-.19v1.75a4.33,4.33,0,0,1-1.47.21c-1.4,0-2.48-.58-2.48-2.06V272H117.2v-1.68h1.35v-2h2.1v2h1.85Z"/><path class="cls-3" d="M127.83,276.3h0a2.47,2.47,0,0,1-2.16,1,2.18,2.18,0,0,1-2.42-2.1c0-2.36,2.86-2.4,4.61-2.4a1.25,1.25,0,0,0-1.34-1.22,2.22,2.22,0,0,0-1.71.82l-1.12-1.15a4.38,4.38,0,0,1,3-1.1c2.45,0,3.11,1.25,3.11,3.52v3.46h-1.93Zm-.52-2.13c-.64,0-2.07.05-2.07,1,0,.5.53.74,1,.74.83,0,1.6-.44,1.6-1.28v-.44Z"/><path class="cls-3" d="M135.68,272.54a1.3,1.3,0,0,0-1-.52,1.73,1.73,0,0,0,0,3.45,1.32,1.32,0,0,0,1-.52l1.39,1.46a3.42,3.42,0,0,1-2.42.91,3.58,3.58,0,1,1,0-7.15,3.42,3.42,0,0,1,2.42.91Z"/><path class="cls-3" d="M137.82,266.56h2.1V273l2.33-2.69h2.58l-2.71,3.07,2.78,3.74h-2.65L140,273.7h0v3.45h-2.1Z"/><path class="cls-3" d="M78.19,284h2.38l1.59,6.36h0L84.26,284h2l2.06,6.53h0L90,284h2.21L89.35,294H87.41l-2.19-6.86h0L83,294H81.13Z"/><path class="cls-3" d="M95.72,287a3.58,3.58,0,1,1-3.78,3.58A3.55,3.55,0,0,1,95.72,287Zm0,5.3A1.73,1.73,0,1,0,94,290.55,1.59,1.59,0,0,0,95.72,292.27Z"/><path class="cls-3" d="M100.73,287.14h2.1v1.09h0a2.09,2.09,0,0,1,2-1.26,3,3,0,0,1,.7.07V289a3.37,3.37,0,0,0-.89-.14c-1.6,0-1.8.93-1.8,2.29V294h-2.1Z"/><path class="cls-3" d="M113.32,294h-1.93v-.9h0a2.63,2.63,0,0,1-2.09,1.07,3.27,3.27,0,0,1-3.34-3.52c0-1.89,1.17-3.63,3.11-3.63a2.52,2.52,0,0,1,2.15.9h0v-4.51h2.1Zm-3.61-5.13a1.73,1.73,0,1,0,1.68,1.73A1.59,1.59,0,0,0,109.71,288.82Z"/><path class="cls-3" d="M115.19,287.14h1.94v.9h0a2.63,2.63,0,0,1,2.08-1.07,3.27,3.27,0,0,1,3.35,3.52c0,1.89-1.18,3.63-3.11,3.63a2.54,2.54,0,0,1-2.16-.9h0v3.92h-2.11Zm3.62,5.13a1.73,1.73,0,1,0-1.68-1.72A1.59,1.59,0,0,0,118.81,292.27Z"/><path class="cls-3" d="M123.82,287.14h2.1v1.09h0a2.08,2.08,0,0,1,2-1.26,3.08,3.08,0,0,1,.7.07V289a3.38,3.38,0,0,0-.9-.14c-1.59,0-1.79.93-1.79,2.29V294h-2.1Z"/><path class="cls-3" d="M135.71,292.77a3.68,3.68,0,0,1-2.87,1.35,3.58,3.58,0,1,1,0-7.15c2,0,3.19,1.4,3.19,3.58v.65h-4.87a1.56,1.56,0,0,0,1.58,1.32,1.8,1.8,0,0,0,1.5-.83Zm-1.78-3a1.26,1.26,0,0,0-1.29-1.29,1.4,1.4,0,0,0-1.48,1.29Z"/><path class="cls-3" d="M141.15,289.14a1.52,1.52,0,0,0-1.22-.57c-.35,0-.77.15-.77.56,0,1,3.55.16,3.55,2.75,0,1.73-1.68,2.24-3.14,2.24a3.76,3.76,0,0,1-2.68-.93l1.28-1.41a1.83,1.83,0,0,0,1.48.74c.48,0,1-.13,1-.49,0-1.09-3.55-.17-3.55-2.76,0-1.6,1.43-2.3,2.86-2.3a3.44,3.44,0,0,1,2.52.9Z"/><path class="cls-3" d="M147.64,289.14a1.53,1.53,0,0,0-1.22-.57c-.35,0-.77.15-.77.56,0,1,3.54.16,3.54,2.75,0,1.73-1.68,2.24-3.14,2.24a3.72,3.72,0,0,1-2.67-.93l1.27-1.41a1.85,1.85,0,0,0,1.49.74c.47,0,1-.13,1-.49,0-1.09-3.54-.17-3.54-2.76,0-1.6,1.42-2.3,2.85-2.3a3.44,3.44,0,0,1,2.52.9Z"/><path class="cls-4" d="M71,32.48h6.65v2H73.18v2h4.13v2H73.18v3.86H71Z"/><path class="cls-4" d="M79.21,32.48h3.84c2,0,3.74.7,3.74,3a2.55,2.55,0,0,1-2.14,2.71l2.52,4.19H84.55l-2.07-4H81.4v4H79.21Zm2.19,4.1h1.29c.8,0,1.83,0,1.83-1.11s-.89-1.15-1.69-1.15H81.4Z"/><path class="cls-4" d="M93.1,32.22a5,5,0,0,1,5.36,5.21,5.36,5.36,0,0,1-10.71,0A5,5,0,0,1,93.1,32.22Zm0,8.41a3,3,0,0,0,3.09-3.2,3.09,3.09,0,1,0-6.17,0A3,3,0,0,0,93.1,40.63Z"/><path class="cls-4" d="M99.93,32.48h3l4.22,6.89h0V32.48h2.18v9.91h-2.86l-4.32-7.06h0v7.06H99.93Z"/><path class="cls-4" d="M113.26,34.41h-2.83V32.48h7.85v1.93h-2.83v8h-2.19Z"/><path class="cls-4" d="M119.46,32.48h6.74v2h-4.55v1.85H126v2h-4.3v2h4.8v2h-7Z"/><path class="cls-4" d="M128.2,32.48h3l4.22,6.89h0V32.48h2.19v9.91h-2.86l-4.33-7.06h0v7.06H128.2Z"/><path class="cls-4" d="M139.61,32.48h3.28c3.19,0,5.87,1.35,5.87,5,0,3.21-2.62,4.93-5.58,4.93h-3.57Zm2.19,7.9h1.13c2,0,3.56-.77,3.56-3,0-2-1.56-2.86-3.41-2.86H141.8Z"/><path class="cls-4" d="M75.57,120.13h3.7c1.74,0,3.63.36,3.63,2.52a2.23,2.23,0,0,1-1.71,2.18v0a2.38,2.38,0,0,1,2.17,2.43c0,2.07-2,2.76-3.73,2.76H75.57Zm2.19,4h1.58c.67,0,1.37-.28,1.37-1.08s-.78-1-1.47-1H77.76Zm0,4.11h2c.69,0,1.46-.3,1.46-1.17s-1.05-1.09-1.77-1.09H77.76Z"/><path class="cls-4" d="M87.91,120.13h1.81L94,130.05H91.57l-.86-2.11H86.86L86,130.05H83.62Zm.84,2.88-1.2,3.09H90Z"/><path class="cls-4" d="M101.51,122.71a2.36,2.36,0,0,0-1.88-.82,3.22,3.22,0,0,0-.07,6.39,2.37,2.37,0,0,0,2-1.06l1.82,1.35a4.3,4.3,0,0,1-3.58,1.73,5.21,5.21,0,1,1,0-10.42,4.26,4.26,0,0,1,3.35,1.45Z"/><path class="cls-4" d="M104.69,120.13h2.19v4.12l3.85-4.12h2.86l-4.41,4.61,4.79,5.31h-3.06l-4-4.71v4.71h-2.19Z"/><path class="cls-4" d="M114.8,120.13h6.74v2H117V124h4.3v2H117v2h4.8v2h-7Z"/><path class="cls-4" d="M123.54,120.13h3l4.21,6.89h0v-6.89h2.19v9.92h-2.86L125.75,123h0v7.06h-2.18Z"/><path class="cls-4" d="M135,120.13h3.27c3.2,0,5.87,1.36,5.87,5,0,3.21-2.62,4.94-5.57,4.94H135Zm2.18,7.9h1.14c2,0,3.56-.77,3.56-3,0-1.94-1.56-2.86-3.41-2.86h-1.29Z"/><path class="cls-4" d="M74,198h3.27c3.2,0,5.87,1.36,5.87,5,0,3.21-2.62,4.93-5.57,4.93H74Zm2.18,7.9h1.14c2,0,3.55-.77,3.55-3,0-2-1.55-2.86-3.4-2.86H76.19Z"/><path class="cls-4" d="M87.9,198h1.8L94,207.91H91.55l-.85-2.1H86.84l-.82,2.1H83.61Zm.84,2.88L87.53,204H90Z"/><path class="cls-4" d="M95.64,199.93H92.81V198h7.84v1.93H97.82v8H95.64Z"/><path class="cls-4" d="M103.73,198h1.81l4.31,9.91h-2.46l-.86-2.1h-3.85l-.83,2.1H99.44Zm.84,2.88-1.2,3.08h2.42Z"/><path class="cls-4" d="M110.84,198h3.7c1.73,0,3.63.36,3.63,2.52a2.23,2.23,0,0,1-1.71,2.18v0a2.38,2.38,0,0,1,2.17,2.42c0,2.08-2,2.76-3.73,2.76h-4.06Zm2.18,4h1.59c.67,0,1.37-.28,1.37-1.08s-.78-1-1.47-1H113Zm0,4.11h2c.68,0,1.45-.3,1.45-1.17s-1-1.09-1.76-1.09H113Z"/><path class="cls-4" d="M123.18,198H125l4.32,9.91h-2.47l-.85-2.1h-3.85l-.83,2.1h-2.41Zm.84,2.88L122.81,204h2.42Z"/><path class="cls-4" d="M135.19,200.42a2.11,2.11,0,0,0-1.58-.66c-.62,0-1.48.28-1.48,1,0,1.81,4.57.65,4.57,4.12,0,2.22-1.78,3.27-3.82,3.27a4.71,4.71,0,0,1-3.34-1.25l1.56-1.71a2.43,2.43,0,0,0,1.9.94c.72,0,1.52-.34,1.52-1,0-1.82-4.65-.84-4.65-4.14,0-2.12,1.83-3.23,3.78-3.23a4.5,4.5,0,0,1,3,1Z"/><path class="cls-4" d="M138.41,198h6.73v2h-4.55v1.85h4.3v2h-4.3v2h4.81v2h-7Z"/><line class="cls-5" y1="85.42" x2="2.5" y2="85.42"/><line class="cls-6" x1="7.56" y1="85.42" x2="197.27" y2="85.42"/><line class="cls-5" x1="199.8" y1="85.42" x2="202.3" y2="85.42"/><line class="cls-5" y1="167.59" x2="2.5" y2="167.59"/><line class="cls-6" x1="7.56" y1="167.59" x2="197.27" y2="167.59"/><line class="cls-5" x1="199.8" y1="167.59" x2="202.3" y2="167.59"/></g></g></svg>