<svg xmlns="http://www.w3.org/2000/svg" viewBox="0 0 199.22 322.75"><defs><style>.cls-1{fill:#d2edf3;stroke-dasharray:5;}.cls-1,.cls-2,.cls-3,.cls-7,.cls-8{stroke:#999;}.cls-1,.cls-7,.cls-8{stroke-miterlimit:10;stroke-width:2px;}.cls-2{fill:#d7d6cb;}.cls-2,.cls-3{stroke-linejoin:round;}.cls-3{fill:#ee1e3a;}.cls-4,.cls-6{font-size:14px;}.cls-4{fill:#231f20;}.cls-10,.cls-4,.cls-6{font-family:AvenirLTStd-Black, Avenir LT Std;font-weight:800;}.cls-5{letter-spacing:-0.02em;}.cls-10,.cls-6{fill:#fff;}.cls-7,.cls-8{fill:none;}.cls-8{stroke-dasharray:4.35 4.35;}.cls-9{fill:#999;}.cls-10{font-size:12.8px;}.cls-11{letter-spacing:-0.09em;}</style></defs><g id="Layer_2" data-name="Layer 2"><g id="Layer_1-2" data-name="Layer 1"><rect class="cls-1" x="1" y="1" width="197.22" height="262.96"/><rect class="cls-2" x="26.04" y="19.78" width="139.3" height="77.74"/><rect class="cls-2" x="80.84" y="59.06" width="29.72" height="139.3" transform="translate(224.41 33.02) rotate(90)"/><rect class="cls-3" x="35.83" y="29.17" width="119.35" height="57.91"/><text class="cls-4" transform="translate(57.99 281.03)">Mic<tspan class="cls-5" x="23.6" y="0">r</tspan><tspan x="29.05" y="0">oservice</tspan><tspan x="9.74" y="16.8">F</tspan><tspan class="cls-5" x="18.04" y="16.8">r</tspan><tspan x="23.49" y="16.8">ont and </tspan><tspan x="14.13" y="33.6">backend</tspan></text><text class="cls-6" transform="translate(56.03 61.67)">FRONTEND</text><line class="cls-7" x1="174.74" y1="93.12" x2="174.74" y2="95.62"/><line class="cls-8" x1="174.74" y1="99.98" x2="174.74" y2="123.92"/><line class="cls-7" x1="174.74" y1="126.1" x2="174.74" y2="128.6"/><path class="cls-9" d="M174.74,87.09A29.91,29.91,0,0,1,170,95.63l4.76-1.72,4.75,1.72A30.12,30.12,0,0,1,174.74,87.09Z"/><path class="cls-9" d="M174.74,134.63a30.1,30.1,0,0,0-4.76-8.55l4.76,1.72,4.75-1.72A30.31,30.31,0,0,0,174.74,134.63Z"/><line class="cls-7" x1="174.74" y1="140.67" x2="174.74" y2="143.17"/><line class="cls-8" x1="174.74" y1="147.52" x2="174.74" y2="171.46"/><line class="cls-7" x1="174.74" y1="173.64" x2="174.74" y2="176.14"/><path class="cls-9" d="M174.74,134.63a30.1,30.1,0,0,1-4.76,8.55l4.76-1.72,4.75,1.72A30.31,30.31,0,0,1,174.74,134.63Z"/><path class="cls-9" d="M174.74,182.17a29.91,29.91,0,0,0-4.76-8.54l4.76,1.72,4.75-1.72A30.12,30.12,0,0,0,174.74,182.17Z"/><line class="cls-7" x1="174.74" y1="190.45" x2="174.74" y2="192.95"/><line class="cls-8" x1="174.74" y1="197.31" x2="174.74" y2="221.25"/><line class="cls-7" x1="174.74" y1="223.43" x2="174.74" y2="225.93"/><path class="cls-9" d="M174.74,184.42A29.91,29.91,0,0,1,170,193l4.76-1.72,4.75,1.72A30.12,30.12,0,0,1,174.74,184.42Z"/><path class="cls-9" d="M174.74,232a30.1,30.1,0,0,0-4.76-8.55l4.76,1.72,4.75-1.72A30.31,30.31,0,0,0,174.74,232Z"/><text class="cls-6" transform="translate(79.52 133.68)">AP I</text><rect class="cls-2" x="80.84" y="110.72" width="29.72" height="139.3" transform="translate(-84.68 276.07) rotate(-90)"/><text class="cls-10" transform="translate(59.13 184.19) scale(1.09 1)">D<tspan class="cls-11" x="9.72" y="0">AT</tspan><tspan x="24.19" y="0">ABASE</tspan></text><rect class="cls-2" x="80.84" y="163.18" width="29.72" height="139.3" transform="translate(-137.14 328.53) rotate(-90)"/><text class="cls-10" transform="translate(88.44 236.65) scale(1.09 1)">AI</text></g></g></svg>