<svg xmlns="http://www.w3.org/2000/svg" viewBox="0 0 372.94 598.81"><defs><style>.cls-1,.cls-2{fill:#d7d6cb;}.cls-1,.cls-2,.cls-4{stroke:#999;stroke-linejoin:round;}.cls-2{stroke-linecap:round;}.cls-3{font-size:30px;fill:#231f20;}.cls-3,.cls-5{font-family:AvenirLTStd-Black, Avenir LT Std;font-weight:800;}.cls-4{fill:#ee1e3a;}.cls-5{font-size:34.96px;fill:#fff;}.cls-6{letter-spacing:-0.02em;}</style></defs><g id="Layer_2" data-name="Layer 2"><g id="Layer_1-2" data-name="Layer 1"><polygon class="cls-1" points="175.7 512.71 101.22 469.71 175.23 426.98 249.71 469.98 175.7 512.71"/><polygon class="cls-1" points="175.7 598.31 101.22 555.31 101.22 469.85 175.7 512.85 175.7 598.31"/><polygon class="cls-2" points="250.17 555.31 175.7 598.31 175.7 512.85 250.17 469.85 250.17 555.31"/><polygon class="cls-1" points="175.7 415.67 101.22 372.67 175.23 329.94 249.71 372.94 175.7 415.67"/><polygon class="cls-1" points="175.7 501.26 101.22 458.26 101.22 372.8 175.7 415.8 175.7 501.26"/><polygon class="cls-2" points="250.17 458.26 175.7 501.26 175.7 415.8 250.17 372.8 250.17 458.26"/><text class="cls-3" transform="matrix(0.87, 0.5, 0, 1, 115.54, 534.64)">DB</text><text class="cls-3" transform="matrix(0.87, 0.5, 0, 1, 115.87, 437.59)">API</text><polygon class="cls-4" points="186.47 214.57 0.5 107.2 185.31 0.5 371.28 107.87 186.47 214.57"/><polygon class="cls-4" points="186.47 428.3 0.5 320.93 0.5 107.53 186.47 214.9 186.47 428.3"/><polygon class="cls-4" points="372.44 320.93 186.47 428.3 186.47 214.9 372.44 107.53 372.44 320.93"/><text class="cls-5" transform="matrix(0.87, 0.5, 0, 1, 32.82, 253.86)">f<tspan class="cls-6" x="12.93" y="0">r</tspan><tspan x="26.53" y="0">otend</tspan></text></g></g></svg>