<svg xmlns="http://www.w3.org/2000/svg" viewBox="0 0 1030.91 449.87"><defs><style>.cls-1{fill:#eecde2;}.cls-1,.cls-17,.cls-18,.cls-2,.cls-20,.cls-21,.cls-3,.cls-7,.cls-8{stroke:#999;}.cls-1,.cls-11,.cls-17,.cls-18,.cls-20,.cls-21,.cls-7,.cls-8{stroke-miterlimit:10;}.cls-1,.cls-17,.cls-18,.cls-20,.cls-7,.cls-8{stroke-width:2px;}.cls-1,.cls-17,.cls-20{stroke-dasharray:5;}.cls-2{fill:#d7d6cb;}.cls-2,.cls-3{stroke-linejoin:round;}.cls-11,.cls-3{fill:#ee1e3a;}.cls-4,.cls-9{fill:#231f20;}.cls-12,.cls-5{fill:#fff;}.cls-13,.cls-15,.cls-6{fill:#333;}.cls-18,.cls-20,.cls-21,.cls-7,.cls-8{fill:none;}.cls-8{stroke-dasharray:5.06 5.06;}.cls-12,.cls-13,.cls-9{font-size:14px;}.cls-12,.cls-13,.cls-15,.cls-9{font-family:AvenirLTStd-Black, Avenir LT Std;font-weight:800;}.cls-10{letter-spacing:-0.02em;}.cls-11{stroke:#666766;}.cls-14{letter-spacing:-0.09em;}.cls-15{font-size:12.8px;}.cls-16{letter-spacing:-0.09em;}.cls-17{fill:#d2edf3;}.cls-18{stroke-dasharray:4.35 4.35;}.cls-19{fill:#999;}.cls-21{stroke-width:4px;stroke-dasharray:5 5;}</style></defs><g id="Layer_2" data-name="Layer 2"><g id="Layer_1-2" data-name="Layer 1"><rect class="cls-1" x="578.35" y="128.13" width="451.57" height="262.96"/><rect class="cls-2" x="39.91" y="146.9" width="139.3" height="239.48"/><rect class="cls-3" x="49.7" y="156.3" width="119.35" height="57.91"/><path class="cls-4" d="M73.52,398.77H70.69v-1.93h7.84v1.93H75.7v8H73.52Z"/><path class="cls-4" d="M81.47,396.16v4.71h0a2,2,0,0,1,1.9-1.09c2.13,0,2.52,1.4,2.52,3.22v3.75h-2.1v-3.33c0-.78,0-1.79-1.09-1.79s-1.26.85-1.26,1.73v3.39h-2.1V396.16Z"/><path class="cls-4" d="M93.85,405.58A3.71,3.71,0,0,1,91,406.92a3.58,3.58,0,1,1,0-7.14c2,0,3.19,1.4,3.19,3.57V404H89.3a1.56,1.56,0,0,0,1.58,1.31,1.81,1.81,0,0,0,1.5-.82Zm-1.78-3a1.26,1.26,0,0,0-1.29-1.29,1.4,1.4,0,0,0-1.48,1.29Z"/><path class="cls-4" d="M99.58,400h2v.92h0a2.22,2.22,0,0,1,2-1.09,2.13,2.13,0,0,1,2.1,1.22,2.21,2.21,0,0,1,2.16-1.22c1.85,0,2.41,1.3,2.41,3v4h-2.11v-4c0-.63-.23-1.16-.92-1.16-1,0-1.27.68-1.27,1.52v3.6h-2.11v-3.6c0-.5,0-1.52-.93-1.52s-1.26.85-1.26,1.73v3.39H99.58Z"/><path class="cls-4" d="M115.29,399.78a3.58,3.58,0,1,1-3.78,3.57A3.56,3.56,0,0,1,115.29,399.78Zm0,5.29a1.72,1.72,0,1,0-1.68-1.72A1.59,1.59,0,0,0,115.29,405.07Z"/><path class="cls-4" d="M120.3,400h2v.92h0a2.22,2.22,0,0,1,2-1.09c2.13,0,2.52,1.4,2.52,3.22v3.75h-2.1v-3.33c0-.78,0-1.79-1.09-1.79s-1.26.85-1.26,1.73v3.39H120.3Z"/><path class="cls-4" d="M131.87,399.78a3.58,3.58,0,1,1-3.78,3.57A3.55,3.55,0,0,1,131.87,399.78Zm0,5.29a1.72,1.72,0,1,0-1.68-1.72A1.59,1.59,0,0,0,131.87,405.07Z"/><path class="cls-4" d="M136.91,396.16H139v10.59h-2.1Z"/><path class="cls-4" d="M141.6,396.58a1.22,1.22,0,1,1-1.22,1.22A1.22,1.22,0,0,1,141.6,396.58Zm-1,3.37h2.1v6.8h-2.1Z"/><path class="cls-4" d="M148.8,401.63H147v2.27c0,.72.08,1.26,1,1.26a1.52,1.52,0,0,0,.86-.2v1.75a4.33,4.33,0,0,1-1.47.21c-1.41,0-2.48-.57-2.48-2.06v-3.23H143.5V400h1.35v-2H147v2h1.85Z"/><path class="cls-4" d="M152,396.16v4.71h0a2,2,0,0,1,1.9-1.09c2.13,0,2.52,1.4,2.52,3.22v3.75h-2.1v-3.33c0-.78,0-1.79-1.09-1.79s-1.26.85-1.26,1.73v3.39h-2.1V396.16Z"/><path class="cls-4" d="M84,413.64h6.65v2H86.15v2h4.13v2H86.15v3.86H84Z"/><path class="cls-4" d="M98.47,423.55h-2v-.92h0a2.22,2.22,0,0,1-2,1.09c-2.13,0-2.52-1.4-2.52-3.22v-3.75H94v3.33c0,.78,0,1.79,1.09,1.79s1.26-.85,1.26-1.73v-3.39h2.1Z"/><path class="cls-4" d="M100,413h2.1v10.59H100Z"/><path class="cls-4" d="M103.62,413h2.1v10.59h-2.1Z"/><path class="cls-4" d="M115.23,418.75a1.51,1.51,0,0,0-1.22-.58c-.35,0-.77.16-.77.56,0,1,3.54.16,3.54,2.75,0,1.74-1.68,2.24-3.13,2.24a3.77,3.77,0,0,1-2.68-.92l1.28-1.42a1.8,1.8,0,0,0,1.48.74c.48,0,1-.12,1-.49,0-1.09-3.54-.16-3.54-2.76,0-1.59,1.43-2.29,2.86-2.29a3.45,3.45,0,0,1,2.52.89Z"/><path class="cls-4" d="M122.5,418.43h-1.85v2.27c0,.72.08,1.26,1,1.26a1.52,1.52,0,0,0,.86-.2v1.75a4.33,4.33,0,0,1-1.47.21c-1.4,0-2.48-.57-2.48-2.06v-3.23H117.2v-1.68h1.35v-2h2.1v2h1.85Z"/><path class="cls-4" d="M127.83,422.7h0a2.44,2.44,0,0,1-2.16,1,2.18,2.18,0,0,1-2.42-2.1c0-2.35,2.86-2.39,4.61-2.39a1.25,1.25,0,0,0-1.34-1.22,2.21,2.21,0,0,0-1.71.81l-1.12-1.15a4.38,4.38,0,0,1,3-1.09c2.45,0,3.11,1.24,3.11,3.51v3.46h-1.93Zm-.52-2.13c-.64,0-2.07.06-2.07,1,0,.5.53.74,1,.74.83,0,1.6-.43,1.6-1.27v-.45Z"/><path class="cls-4" d="M135.68,418.94a1.3,1.3,0,0,0-1-.51,1.72,1.72,0,0,0,0,3.44,1.32,1.32,0,0,0,1-.52l1.39,1.46a3.42,3.42,0,0,1-2.42.91,3.58,3.58,0,1,1,0-7.14,3.42,3.42,0,0,1,2.42.91Z"/><path class="cls-4" d="M137.82,413h2.1v6.48l2.33-2.69h2.58l-2.71,3.06,2.78,3.74h-2.65l-2.3-3.44h0v3.44h-2.1Z"/><path class="cls-4" d="M78.19,430.44h2.38l1.59,6.36h0l2.08-6.36h2L88.35,437h0L90,430.44h2.21l-2.9,9.91H87.41l-2.19-6.86h0L83,440.35H81.13Z"/><path class="cls-4" d="M95.72,433.38A3.58,3.58,0,1,1,91.94,437,3.55,3.55,0,0,1,95.72,433.38Zm0,5.29A1.72,1.72,0,1,0,94,437,1.59,1.59,0,0,0,95.72,438.67Z"/><path class="cls-4" d="M100.73,433.55h2.1v1.09h0a2.08,2.08,0,0,1,2-1.26,2.56,2.56,0,0,1,.7.07v1.92a3,3,0,0,0-.89-.14c-1.6,0-1.8.92-1.8,2.28v2.84h-2.1Z"/><path class="cls-4" d="M113.32,440.35h-1.93v-.89h0a2.63,2.63,0,0,1-2.09,1.06,3.26,3.26,0,0,1-3.34-3.51c0-1.9,1.17-3.63,3.11-3.63a2.55,2.55,0,0,1,2.15.89h0v-4.51h2.1Zm-3.61-5.12a1.72,1.72,0,1,0,1.68,1.72A1.59,1.59,0,0,0,109.71,435.23Z"/><path class="cls-4" d="M115.19,433.55h1.94v.89h0a2.62,2.62,0,0,1,2.08-1.06,3.26,3.26,0,0,1,3.35,3.51c0,1.89-1.18,3.63-3.11,3.63a2.54,2.54,0,0,1-2.16-.9h0v3.93h-2.11Zm3.62,5.12a1.72,1.72,0,1,0-1.68-1.72A1.59,1.59,0,0,0,118.81,438.67Z"/><path class="cls-4" d="M123.82,433.55h2.1v1.09h0a2.07,2.07,0,0,1,2-1.26,2.6,2.6,0,0,1,.7.07v1.92a3,3,0,0,0-.9-.14c-1.59,0-1.79.92-1.79,2.28v2.84h-2.1Z"/><path class="cls-4" d="M135.71,439.18a3.71,3.71,0,0,1-2.87,1.34,3.58,3.58,0,1,1,0-7.14c2,0,3.19,1.4,3.19,3.57v.66h-4.87a1.56,1.56,0,0,0,1.58,1.31,1.81,1.81,0,0,0,1.5-.82Zm-1.78-3a1.26,1.26,0,0,0-1.29-1.29,1.4,1.4,0,0,0-1.48,1.29Z"/><path class="cls-4" d="M141.15,435.55a1.5,1.5,0,0,0-1.22-.58c-.35,0-.77.16-.77.56,0,1,3.55.16,3.55,2.75,0,1.74-1.68,2.24-3.14,2.24a3.8,3.8,0,0,1-2.68-.92l1.28-1.42a1.8,1.8,0,0,0,1.48.74c.48,0,1-.12,1-.49,0-1.09-3.55-.16-3.55-2.76,0-1.59,1.43-2.29,2.86-2.29a3.43,3.43,0,0,1,2.52.89Z"/><path class="cls-4" d="M147.64,435.55a1.51,1.51,0,0,0-1.22-.58c-.35,0-.77.16-.77.56,0,1,3.54.16,3.54,2.75,0,1.74-1.68,2.24-3.14,2.24a3.76,3.76,0,0,1-2.67-.92l1.27-1.42a1.82,1.82,0,0,0,1.49.74c.47,0,1-.12,1-.49,0-1.09-3.54-.16-3.54-2.76,0-1.59,1.42-2.29,2.85-2.29a3.43,3.43,0,0,1,2.52.89Z"/><path class="cls-5" d="M71,178.88h6.65v2H73.18v2h4.13v2H73.18v3.87H71Z"/><path class="cls-5" d="M79.21,178.88h3.84c2,0,3.74.7,3.74,3a2.55,2.55,0,0,1-2.14,2.72l2.52,4.19H84.55l-2.07-4H81.4v4H79.21ZM81.4,183h1.29c.8,0,1.83,0,1.83-1.1s-.89-1.15-1.69-1.15H81.4Z"/><path class="cls-5" d="M93.1,178.63a5.21,5.21,0,1,1-5.35,5.21A5,5,0,0,1,93.1,178.63Zm0,8.4A3.2,3.2,0,1,0,90,183.84,3,3,0,0,0,93.1,187Z"/><path class="cls-5" d="M99.93,178.88h3l4.22,6.89h0v-6.89h2.18v9.92h-2.86l-4.32-7.06h0v7.06H99.93Z"/><path class="cls-5" d="M113.26,180.81h-2.83v-1.93h7.85v1.93h-2.83v8h-2.19Z"/><path class="cls-5" d="M119.46,178.88h6.74v2h-4.55v1.85H126v2h-4.3v2h4.8v2h-7Z"/><path class="cls-5" d="M128.2,178.88h3l4.22,6.89h0v-6.89h2.19v9.92h-2.86l-4.33-7.06h0v7.06H128.2Z"/><path class="cls-5" d="M139.61,178.88h3.28c3.19,0,5.87,1.36,5.87,5,0,3.2-2.62,4.93-5.58,4.93h-3.57Zm2.19,7.9h1.13c2,0,3.56-.77,3.56-3,0-1.94-1.56-2.85-3.41-2.85H141.8Z"/><path class="cls-6" d="M75.57,266.53h3.7c1.74,0,3.63.37,3.63,2.52a2.24,2.24,0,0,1-1.71,2.19v0a2.37,2.37,0,0,1,2.17,2.42c0,2.07-2,2.76-3.73,2.76H75.57Zm2.19,4h1.58c.67,0,1.37-.28,1.37-1.08s-.78-1-1.47-1H77.76Zm0,4.1h2c.69,0,1.46-.29,1.46-1.16s-1.05-1.1-1.77-1.1H77.76Z"/><path class="cls-6" d="M87.91,266.53h1.81L94,276.45H91.57l-.86-2.1H86.86l-.83,2.1H83.62Zm.84,2.89-1.2,3.08H90Z"/><path class="cls-6" d="M101.51,269.11a2.35,2.35,0,0,0-1.88-.81,3.21,3.21,0,0,0-.07,6.38,2.37,2.37,0,0,0,2-1.06l1.82,1.36a4.32,4.32,0,0,1-3.58,1.72,5.21,5.21,0,1,1,0-10.42,4.27,4.27,0,0,1,3.35,1.46Z"/><path class="cls-6" d="M104.69,266.53h2.19v4.12l3.85-4.12h2.86l-4.41,4.61,4.79,5.31h-3.06l-4-4.71v4.71h-2.19Z"/><path class="cls-6" d="M114.8,266.53h6.74v2H117v1.85h4.3v2H117v2h4.8v2h-7Z"/><path class="cls-6" d="M123.54,266.53h3l4.21,6.89h0v-6.89h2.19v9.92h-2.86l-4.33-7.06h0v7.06h-2.18Z"/><path class="cls-6" d="M135,266.53h3.27c3.2,0,5.87,1.36,5.87,5,0,3.21-2.62,4.93-5.57,4.93H135Zm2.18,7.9h1.14c2,0,3.56-.77,3.56-3,0-2-1.56-2.86-3.41-2.86h-1.29Z"/><path class="cls-6" d="M74,344.4h3.27c3.2,0,5.87,1.36,5.87,5,0,3.21-2.62,4.93-5.57,4.93H74Zm2.18,7.9h1.14c2,0,3.55-.77,3.55-3,0-1.94-1.55-2.85-3.4-2.85H76.19Z"/><path class="cls-6" d="M87.9,344.4h1.8L94,354.32H91.55l-.85-2.1H86.84l-.82,2.1H83.61Zm.84,2.89-1.21,3.08H90Z"/><path class="cls-6" d="M95.64,346.33H92.81V344.4h7.84v1.93H97.82v8H95.64Z"/><path class="cls-6" d="M103.73,344.4h1.81l4.31,9.92h-2.46l-.86-2.1h-3.85l-.83,2.1H99.44Zm.84,2.89-1.2,3.08h2.42Z"/><path class="cls-6" d="M110.84,344.4h3.7c1.73,0,3.63.37,3.63,2.52a2.24,2.24,0,0,1-1.71,2.19v0a2.37,2.37,0,0,1,2.17,2.42c0,2.07-2,2.76-3.73,2.76h-4.06Zm2.18,4h1.59c.67,0,1.37-.28,1.37-1.07s-.78-1-1.47-1H113Zm0,4.11h2c.68,0,1.45-.3,1.45-1.16s-1-1.1-1.76-1.1H113Z"/><path class="cls-6" d="M123.18,344.4H125l4.32,9.92h-2.47l-.85-2.1h-3.85l-.83,2.1h-2.41Zm.84,2.89-1.21,3.08h2.42Z"/><path class="cls-6" d="M135.19,346.82a2.14,2.14,0,0,0-1.58-.65c-.62,0-1.48.28-1.48,1,0,1.8,4.57.64,4.57,4.12,0,2.21-1.78,3.26-3.82,3.26a4.71,4.71,0,0,1-3.34-1.25l1.56-1.71a2.43,2.43,0,0,0,1.9.94c.72,0,1.52-.33,1.52-1,0-1.82-4.65-.84-4.65-4.15,0-2.11,1.83-3.22,3.78-3.22a4.45,4.45,0,0,1,3,1Z"/><path class="cls-6" d="M138.41,344.4h6.73v2h-4.55v1.85h4.3v2h-4.3v2h4.81v2h-7Z"/><line class="cls-7" y1="231.82" x2="2.5" y2="231.82"/><line class="cls-8" x1="7.56" y1="231.82" x2="197.27" y2="231.82"/><line class="cls-7" x1="199.8" y1="231.82" x2="202.3" y2="231.82"/><line class="cls-7" y1="314" x2="2.5" y2="314"/><line class="cls-8" x1="7.56" y1="314" x2="197.27" y2="314"/><line class="cls-7" x1="199.8" y1="314" x2="202.3" y2="314"/><text class="cls-9" transform="translate(180.6 11.62)">Monolith F<tspan class="cls-10" x="71.79" y="0">r</tspan><tspan x="77.24" y="0">ontend</tspan></text><text class="cls-9" transform="translate(703.79 55.07)">Mic<tspan class="cls-10" x="23.6" y="0">r</tspan><tspan x="29.05" y="0">oservice F</tspan><tspan class="cls-10" x="96.46" y="0">r</tspan><tspan x="101.91" y="0">ontend (Basic)</tspan></text><rect class="cls-11" x="607.7" y="136.3" width="119.35" height="57.91"/><text class="cls-12" transform="translate(627.71 168.8)">FRONTEND</text><rect class="cls-11" x="742.06" y="136.3" width="119.35" height="57.91"/><text class="cls-12" transform="translate(762.07 168.8)">FRONTEND</text><rect class="cls-11" x="877.13" y="136.3" width="119.35" height="57.91"/><text class="cls-12" transform="translate(897.15 168.8)">FRONTEND</text><rect class="cls-2" x="786.66" y="61.43" width="29.72" height="388.83" transform="translate(1057.36 -545.68) rotate(90)"/><text class="cls-13" transform="translate(796.64 260.81)">API</text><rect class="cls-2" x="786.94" y="14.06" width="29.72" height="389.37" transform="translate(1010.54 -593.05) rotate(90)"/><text class="cls-13" transform="translate(751.67 213.72)">ROUTING L<tspan class="cls-14" x="77.24" y="0">A</tspan><tspan x="86.32" y="0">YER</tspan></text><rect class="cls-2" x="786.66" y="113.08" width="29.72" height="388.83" transform="translate(494.02 1109.02) rotate(-90)"/><text class="cls-15" transform="translate(774.18 311.31) scale(1.09 1)">D<tspan class="cls-16" x="9.72" y="0">AT</tspan><tspan x="24.19" y="0">ABASE</tspan></text><rect class="cls-17" x="273.13" y="128.13" width="197.22" height="262.96"/><rect class="cls-2" x="298.17" y="146.9" width="139.3" height="77.74"/><rect class="cls-2" x="352.97" y="186.19" width="29.72" height="139.3" transform="translate(623.67 -111.99) rotate(90)"/><rect class="cls-3" x="307.96" y="156.3" width="119.35" height="57.91"/><text class="cls-9" transform="translate(330.12 408.15)">Mic<tspan class="cls-10" x="23.6" y="0">r</tspan><tspan x="29.05" y="0">oservice</tspan><tspan x="9.74" y="16.8">F</tspan><tspan class="cls-10" x="18.04" y="16.8">r</tspan><tspan x="23.49" y="16.8">ont and </tspan><tspan x="14.13" y="33.6">backend</tspan></text><text class="cls-12" transform="translate(328.16 188.8)">FRONTEND</text><line class="cls-7" x1="446.87" y1="220.25" x2="446.87" y2="222.75"/><line class="cls-18" x1="446.87" y1="227.1" x2="446.87" y2="251.04"/><line class="cls-7" x1="446.87" y1="253.22" x2="446.87" y2="255.72"/><path class="cls-19" d="M446.87,214.21a30,30,0,0,1-4.76,8.55l4.76-1.72,4.75,1.72A30.18,30.18,0,0,1,446.87,214.21Z"/><path class="cls-19" d="M446.87,261.76a30,30,0,0,0-4.76-8.55l4.76,1.72,4.75-1.72A30.18,30.18,0,0,0,446.87,261.76Z"/><line class="cls-7" x1="446.87" y1="267.79" x2="446.87" y2="270.29"/><line class="cls-18" x1="446.87" y1="274.64" x2="446.87" y2="298.59"/><line class="cls-7" x1="446.87" y1="300.76" x2="446.87" y2="303.26"/><path class="cls-19" d="M446.87,261.76a29.91,29.91,0,0,1-4.76,8.54l4.76-1.72,4.75,1.72A30.12,30.12,0,0,1,446.87,261.76Z"/><path class="cls-19" d="M446.87,309.3a30.1,30.1,0,0,0-4.76-8.55l4.76,1.72,4.75-1.72A30.31,30.31,0,0,0,446.87,309.3Z"/><line class="cls-7" x1="446.87" y1="317.58" x2="446.87" y2="320.08"/><line class="cls-18" x1="446.87" y1="324.43" x2="446.87" y2="348.37"/><line class="cls-7" x1="446.87" y1="350.55" x2="446.87" y2="353.05"/><path class="cls-19" d="M446.87,311.54a30,30,0,0,1-4.76,8.55l4.76-1.72,4.75,1.72A30.18,30.18,0,0,1,446.87,311.54Z"/><path class="cls-19" d="M446.87,359.09a30,30,0,0,0-4.76-8.55l4.76,1.72,4.75-1.72A30.18,30.18,0,0,0,446.87,359.09Z"/><text class="cls-13" transform="translate(353.72 260.81)">API</text><rect class="cls-2" x="352.97" y="237.85" width="29.72" height="139.3" transform="translate(60.33 675.32) rotate(-90)"/><text class="cls-15" transform="translate(331.26 311.31) scale(1.09 1)">D<tspan class="cls-16" x="9.72" y="0">AT</tspan><tspan x="24.19" y="0">ABASE</tspan></text><rect class="cls-2" x="352.97" y="290.31" width="29.72" height="139.3" transform="translate(7.86 727.79) rotate(-90)"/><text class="cls-15" transform="translate(360.57 363.78) scale(1.09 1)">AI</text><rect class="cls-2" x="787.21" y="165.55" width="29.72" height="388.83" transform="translate(442.11 1162.03) rotate(-90)"/><text class="cls-15" transform="translate(803.69 363.78) scale(1.09 1)">AI</text><line class="cls-20" x1="113.87" y1="156.3" x2="113.87" y2="63.17"/><line class="cls-20" x1="242.8" y1="63.17" x2="242.8" y2="16.6"/><line class="cls-20" x1="374.11" y1="156.3" x2="374.11" y2="63.17"/><line class="cls-20" x1="371.74" y1="63.17" x2="113.87" y2="63.17"/><line class="cls-21" x1="482.57" y1="270.7" x2="556.45" y2="270.7"/><path class="cls-19" d="M573.35,270.7c-8,2.95-17.82,8-23.93,13.31l4.81-13.31-4.81-13.32C555.53,262.72,565.4,267.75,573.35,270.7Z"/><text class="cls-9" transform="translate(625.7 115.23)">user story 1</text><text class="cls-9" transform="translate(755.04 115.23)">user story 2</text><text class="cls-9" transform="translate(897.29 115.23)">user story 3</text></g></g></svg>